<?xml version="1.0" standalone="no"?>
<!DOCTYPE svg PUBLIC "-//W3C//DTD SVG 20010904//EN"
 "http://www.w3.org/TR/2001/REC-SVG-20010904/DTD/svg10.dtd">
<svg version="1.0" xmlns="http://www.w3.org/2000/svg"
 width="1024.000000pt" height="1024.000000pt" viewBox="0 0 1024.000000 1024.000000"
 preserveAspectRatio="xMidYMid meet">

<g transform="translate(0.000000,1024.000000) scale(0.100000,-0.100000)"
fill="#000000" stroke="none">
<path d="M143 10221 c-11 -17 -21 -19 -78 -15 l-65 4 0 -64 0 -65 78 -3 77 -3
3 -139 c2 -96 -1 -143 -9 -153 -10 -11 -27 -12 -81 -7 l-68 7 0 -65 0 -65 78
1 77 1 0 -170 0 -170 -77 3 -78 3 0 -67 0 -67 68 5 c37 3 73 4 80 1 18 -7 17
-346 -1 -362 -9 -7 -37 -8 -80 -4 l-67 6 0 -67 0 -68 43 7 c23 3 54 8 68 11
15 3 31 -1 37 -8 13 -16 20 -291 8 -326 -8 -23 -10 -23 -82 -17 l-74 7 0 -51
0 -51 79 0 c92 0 90 3 98 -112 3 -43 9 -75 14 -72 4 2 -7 -26 -25 -63 -98
-198 -120 -293 -120 -516 -1 -163 -2 -169 -24 -187 -12 -10 -22 -26 -22 -35 0
-14 3 -14 26 4 15 11 30 18 35 15 12 -7 12 -10 13 216 2 203 0 192 54 350 20
60 91 199 92 180 0 -18 60 69 60 88 0 34 120 178 168 203 15 7 46 26 70 42 65
43 164 87 245 108 84 22 87 22 87 9 0 -5 -8 -10 -17 -10 -10 -1 -29 -8 -43
-16 -20 -12 -21 -14 -5 -11 11 3 29 8 39 13 14 5 17 4 11 -6 -7 -11 -93 -54
-149 -74 -10 -3 -17 -9 -14 -11 2 -3 38 9 79 26 109 45 133 84 83 134 -20 20
-24 32 -19 53 9 35 23 52 46 52 30 0 51 -30 47 -67 -2 -18 0 -33 4 -33 4 0 8
18 8 40 0 74 -69 108 -103 51 -19 -33 -22 -73 -7 -101 9 -17 5 -19 -37 -25
-54 -6 -207 -77 -285 -130 -27 -19 -56 -35 -63 -35 -15 0 -137 -129 -173 -183
-14 -20 -27 -36 -29 -33 -2 2 10 23 27 47 16 24 33 55 36 69 3 14 5 118 4 231
-1 157 2 208 12 216 7 6 84 13 171 16 l158 6 9 -25 c6 -14 10 -48 10 -75 0
-54 15 -79 48 -79 29 0 39 19 46 91 l7 67 37 5 c20 3 98 9 173 13 135 7 136 7
152 -17 10 -13 17 -35 17 -49 0 -15 7 -35 15 -46 21 -28 19 -32 -22 -37 -21
-2 -5 -4 35 -5 46 -1 71 2 67 8 -3 5 0 35 7 66 20 85 29 88 206 80 80 -3 151
-11 157 -17 6 -6 10 -57 10 -119 l0 -110 28 -11 c23 -10 31 -10 37 1 6 9 13 4
24 -19 9 -17 23 -31 31 -31 8 0 22 -8 32 -18 37 -38 93 -73 104 -66 7 4 10 2
7 -7 -3 -8 28 -49 70 -94 40 -44 91 -110 113 -146 45 -78 123 -237 132 -268 3
-11 12 -21 20 -21 10 0 13 7 10 19 -3 14 3 21 28 30 39 13 52 14 45 2 -8 -12
30 -58 54 -66 11 -4 20 -10 20 -14 0 -4 -22 -32 -49 -62 -40 -44 -50 -51 -56
-37 -4 9 -13 14 -21 11 -15 -5 -44 13 -44 27 0 5 7 10 16 12 10 2 5 7 -15 15
-30 11 -32 11 -25 -10 4 -12 10 -24 13 -27 4 -3 7 -77 6 -165 -1 -242 -40
-379 -168 -595 -56 -93 -216 -262 -272 -285 -17 -8 -55 -30 -84 -49 -53 -36
-88 -47 -76 -23 4 6 -2 3 -12 -9 -10 -12 -43 -34 -74 -51 -52 -27 -57 -28 -80
-14 -24 15 -24 15 -6 -6 24 -27 14 -61 -20 -74 -14 -5 -27 -8 -29 -6 -2 2 -7
25 -10 50 -6 45 -5 47 17 47 19 0 21 2 9 10 -9 5 -19 5 -26 -1 -8 -6 -14 -5
-18 6 -8 21 -34 19 -60 -6 -20 -19 -45 -23 -194 -32 -8 0 -9 -4 -3 -10 6 -6
38 -13 73 -17 43 -4 57 -9 45 -14 -9 -5 -26 -6 -37 -3 -11 3 -20 1 -20 -4 0
-6 -7 -6 -17 -1 -10 5 -43 12 -73 15 -159 18 -376 96 -510 183 -78 51 -254
219 -245 234 4 6 1 9 -7 8 -7 -2 -12 5 -12 14 1 10 -3 16 -8 15 -20 -4 -148
264 -148 309 0 21 -3 25 -18 19 -9 -4 -36 -12 -60 -18 -30 -8 -42 -15 -42 -29
0 -10 6 -18 14 -18 29 0 66 20 66 35 0 37 18 7 54 -93 49 -137 99 -221 195
-327 149 -165 323 -263 573 -324 60 -14 108 -29 108 -33 0 -5 -7 -8 -15 -8 -9
0 -21 -11 -27 -25 -10 -22 -9 -29 8 -45 28 -27 113 -70 140 -70 31 0 38 -15
19 -44 -10 -15 -12 -25 -5 -28 5 -1 12 -26 13 -53 4 -62 12 -82 49 -121 25
-27 27 -32 13 -44 -8 -7 -15 -17 -15 -22 0 -6 -29 -58 -64 -117 -34 -58 -65
-113 -68 -121 -3 -8 -38 -71 -77 -140 -39 -69 -86 -165 -105 -215 -47 -126
-118 -356 -112 -362 8 -8 34 62 77 207 43 142 139 356 206 457 21 32 53 87 71
123 17 36 43 79 56 95 l25 30 -13 -50 c-7 -27 -20 -64 -29 -81 -14 -28 -49
-184 -41 -184 2 0 14 21 26 48 l23 47 5 -35 c4 -25 10 -1 23 90 18 132 35 202
48 198 5 -2 29 -30 54 -62 32 -42 44 -65 39 -78 -4 -14 6 -37 30 -72 26 -38
38 -68 44 -113 8 -56 7 -62 -15 -81 -31 -27 -29 -54 7 -117 20 -36 40 -57 59
-63 16 -6 37 -22 46 -35 15 -24 15 -39 -10 -238 -14 -117 -22 -216 -18 -220
16 -14 147 -38 154 -28 8 13 25 -30 43 -111 21 -91 28 -822 8 -842 -10 -10
-175 -13 -848 -13 l-834 0 0 -108 0 -108 165 7 c138 6 165 5 165 -7 -2 -167
11 -368 29 -448 14 -65 18 -98 11 -106 -11 -13 -34 -17 -240 -40 -69 -7 -126
-14 -127 -14 -4 -2 -3 -431 1 -431 2 0 36 15 77 34 96 44 593 191 749 221 211
41 472 109 505 132 19 13 19 13 -5 14 -235 10 -429 19 -485 24 -65 6 -164 30
-177 43 -5 5 -12 43 -15 84 -4 57 -2 80 9 99 9 13 18 36 22 51 3 15 13 33 21
42 9 9 18 43 22 83 5 50 11 72 25 81 13 10 18 26 18 61 0 27 6 53 13 59 7 6
177 13 453 17 398 6 441 5 453 -9 11 -13 13 -59 9 -219 -3 -111 -3 -217 -1
-234 10 -67 51 -53 247 85 41 29 77 49 79 45 3 -5 31 -111 62 -236 l56 -228
-23 -20 c-38 -33 -296 -203 -398 -262 -52 -30 -94 -60 -93 -66 2 -6 -3 -8 -10
-5 -7 2 -22 -4 -32 -14 -11 -10 -51 -34 -90 -54 -38 -19 -69 -41 -67 -47 1 -6
-8 -11 -21 -11 -13 0 -27 -4 -32 -9 -6 -5 -39 -25 -75 -43 -138 -73 -438 -284
-595 -417 -52 -45 -243 -239 -318 -322 -59 -67 -127 -157 -127 -170 0 -4 12
-5 27 -3 16 3 244 9 508 14 492 9 693 22 729 45 12 7 37 16 56 20 44 9 59 30
60 77 0 37 -1 37 -32 32 -18 -3 -38 -7 -45 -9 -7 -2 -15 0 -18 5 -4 6 -15 10
-26 10 -11 0 -24 10 -29 22 -6 17 -9 19 -9 6 -1 -19 -12 -23 -112 -38 -60 -9
-253 1 -266 13 -2 3 14 8 37 12 22 4 46 12 53 19 25 25 250 65 261 47 9 -13
46 -15 46 -2 0 5 -9 7 -20 4 -24 -6 -28 22 -4 31 21 8 20 8 37 -8 12 -13 20
-13 53 -1 21 8 65 14 97 15 45 0 57 3 57 16 0 8 4 13 8 10 4 -2 13 3 19 13 10
15 6 20 -30 37 -23 10 -45 17 -49 16 -5 -1 -8 2 -8 7 0 16 32 20 142 17 67 -2
109 1 111 7 2 6 13 -9 24 -32 17 -33 19 -49 12 -68 -5 -13 -9 -34 -9 -46 1
-18 4 -16 20 13 23 41 19 76 -16 136 -17 28 -24 56 -24 92 0 96 50 118 408
183 107 20 131 21 181 11 69 -14 104 -15 96 -3 -3 6 -19 58 -36 116 -29 103
-30 107 -12 122 16 13 16 14 1 9 -13 -4 -19 2 -24 22 -3 15 -19 76 -35 137
-17 60 -34 142 -39 182 -5 40 -12 84 -16 99 l-7 27 44 -27 c97 -59 293 -159
395 -202 59 -24 162 -71 229 -103 66 -32 150 -69 185 -81 36 -13 68 -26 72
-29 12 -10 -8 -76 -22 -73 -8 2 -11 -5 -8 -23 3 -14 1 -28 -5 -32 -6 -4 -7 -1
-2 7 5 9 4 11 -3 6 -20 -12 -14 -90 8 -116 26 -30 26 -34 -10 -92 -17 -26 -30
-52 -30 -56 0 -19 50 -54 70 -49 11 3 18 1 15 -3 -3 -5 24 -10 60 -12 36 -1
65 0 65 4 0 11 43 0 51 -13 4 -8 8 -3 11 12 3 21 7 24 38 21 41 -4 80 -27 80
-47 0 -17 34 -38 45 -27 9 8 2 -89 -19 -258 -8 -69 -17 -145 -19 -170 -3 -25
-11 -97 -20 -160 -9 -63 -21 -160 -27 -215 -9 -84 -14 -103 -33 -117 -20 -16
-22 -25 -24 -140 0 -68 -3 -136 -6 -153 -3 -16 -8 -65 -12 -107 -4 -43 -10
-78 -14 -78 -3 0 -6 -35 -7 -78 0 -42 -4 -144 -8 -227 l-8 -149 -19 36 c-34
66 -168 147 -244 148 l-29 0 24 -17 c14 -10 39 -18 56 -19 17 0 48 -11 68 -23
36 -23 42 -41 16 -49 -7 -3 -10 -1 -7 4 3 5 -46 11 -108 12 -74 3 -115 0 -119
-7 -4 -6 -16 -11 -27 -11 -10 0 -19 -5 -19 -11 0 -7 10 -9 28 -5 80 18 123 18
165 2 47 -18 123 -89 129 -121 3 -17 12 -20 59 -23 l56 -3 7 153 c3 84 15 223
26 308 11 85 27 218 35 295 9 77 20 160 25 185 6 25 24 164 40 310 17 146 34
279 39 295 5 17 13 71 16 120 4 50 8 101 10 115 16 111 63 480 91 715 20 165
34 313 40 420 2 50 12 144 21 210 29 215 50 444 40 435 -3 -3 -15 -64 -27
-135 -31 -192 -36 -201 -66 -112 l-18 52 -7 -35 c-5 -19 -6 -43 -3 -52 7 -24
-2 -23 -30 4 -12 13 -76 73 -141 133 -65 61 -137 127 -159 148 -94 89 -598
448 -611 436 -2 -3 40 -34 93 -70 333 -224 518 -372 712 -573 39 -41 42 -46
22 -46 -13 0 -25 7 -28 15 -4 8 -10 13 -14 10 -5 -3 -39 25 -77 63 -79 79
-178 164 -202 174 -9 4 -28 7 -43 7 -16 1 -28 6 -28 11 0 6 -8 10 -17 10 -15
-1 -13 -4 7 -21 135 -106 217 -178 281 -245 41 -43 114 -120 162 -170 48 -50
87 -97 87 -104 0 -8 -13 -2 -32 16 -18 17 -64 53 -103 82 -38 28 -123 105
-188 171 -66 67 -122 121 -126 121 -4 0 -30 17 -58 37 -28 21 -61 45 -73 53
-12 8 -38 27 -58 43 -40 31 -43 32 -36 12 4 -8 9 -15 13 -15 14 0 126 -92 132
-109 4 -9 26 -30 50 -46 62 -42 108 -85 114 -106 4 -11 11 -19 17 -19 14 0 58
-42 58 -57 0 -6 -12 -13 -27 -15 -16 -2 -26 -7 -23 -13 6 -12 51 -13 68 -1 13
9 79 -31 104 -63 11 -13 9 -13 -14 2 -18 11 -29 13 -34 6 -3 -6 -15 -8 -26 -6
-32 9 -48 -3 -48 -33 0 -30 -15 -49 -23 -28 -6 19 -37 -9 -37 -34 0 -19 -2
-18 -42 4 -24 13 -44 26 -46 31 -2 4 -8 7 -14 7 -6 0 -77 40 -157 89 -80 49
-182 107 -226 129 -44 22 -105 57 -135 77 -117 80 -210 133 -210 122 1 -19 22
-41 58 -62 17 -11 32 -25 32 -31 0 -6 26 -24 57 -39 31 -14 63 -34 71 -43 7
-9 10 -11 6 -3 -6 11 -3 13 12 7 10 -5 33 -13 49 -19 47 -17 155 -78 155 -88
0 -5 3 -8 8 -7 10 2 64 -30 115 -68 23 -17 56 -38 72 -46 48 -25 155 -107 155
-119 0 -6 -12 -2 -27 9 -16 11 -55 33 -88 50 -177 88 -432 226 -496 268 -41
27 -87 55 -104 63 -16 8 -49 30 -73 48 -30 25 -42 30 -42 19 0 -10 -6 -13 -17
-9 -17 6 -17 5 -2 -13 9 -10 20 -30 24 -44 7 -22 6 -23 -9 -11 -18 15 -19 12
-18 -39 1 -14 -1 -18 -4 -9 -6 19 -51 29 -80 18 -11 -3 -25 -1 -33 5 -11 8
-13 8 -8 0 4 -7 0 -17 -7 -23 -11 -10 -16 -8 -21 9 -4 12 -9 19 -12 16 -3 -2
3 -18 13 -35 14 -24 16 -33 6 -43 -14 -14 -16 -32 -2 -23 6 3 10 -3 10 -14 0
-14 -10 -24 -32 -31 -33 -10 -33 -10 7 -5 34 4 37 3 21 -8 -10 -6 -32 -24 -48
-40 -36 -34 -44 -34 -52 -1 -4 15 -10 24 -13 21 -3 -4 15 -88 40 -189 102
-408 138 -570 136 -618 -1 -40 -33 60 -96 295 -30 116 -73 275 -94 355 -21 80
-66 255 -99 390 -33 135 -73 295 -89 355 -16 61 -34 135 -41 165 -6 30 -45
190 -85 355 -41 165 -77 318 -81 340 -3 22 -13 65 -20 95 -19 75 -19 140 1
140 21 0 30 -26 86 -260 99 -414 127 -522 136 -529 6 -3 13 -33 16 -66 8 -74
56 -295 69 -315 7 -11 7 -9 3 7 -3 12 -2 24 3 26 4 3 9 -4 9 -16 5 -57 12 -67
48 -67 30 0 44 9 90 57 30 32 55 62 55 67 0 5 17 24 37 43 30 29 38 45 43 87
8 59 -5 288 -20 359 -5 27 -8 58 -5 70 13 56 23 333 15 418 -5 52 -10 146 -11
209 -1 63 -4 120 -6 127 -7 18 -23 16 -23 -2 0 -8 -4 -15 -10 -15 -17 0 -11
30 11 53 20 21 21 28 14 272 -4 138 -7 261 -7 275 0 14 1 91 3 172 1 81 0 151
-4 154 -4 4 -7 0 -7 -9 0 -10 -7 -17 -15 -17 -19 0 -19 7 0 26 40 41 49 189
35 559 -14 347 -14 394 7 464 10 36 13 70 9 103 -4 27 -2 84 3 126 6 42 11 92
11 110 0 17 0 45 0 62 0 27 -9 35 -34 31 -15 -3 -23 18 -18 45 3 19 9 24 23
21 25 -7 36 36 50 199 16 195 17 217 28 669 16 692 16 827 -1 839 -8 6 -13 16
-11 23 5 14 -61 79 -101 100 -33 17 -128 43 -157 43 -13 0 -18 4 -13 12 4 6 3
8 -4 4 -20 -12 -152 6 -152 20 0 17 27 18 33 2 4 -10 6 -10 6 0 1 8 25 12 85
12 72 0 93 4 145 29 34 16 68 34 76 41 8 7 15 9 15 5 0 -5 8 1 18 11 21 24 85
54 115 54 12 1 33 7 47 15 14 8 41 14 61 15 21 0 45 8 59 20 34 29 56 26 64
-10 7 -37 21 -39 24 -3 1 15 7 30 14 34 10 7 21 103 19 172 -1 15 3 27 9 27 5
0 10 9 10 20 0 13 7 20 19 20 16 0 21 9 26 48 3 26 10 67 15 92 5 25 12 63 16
85 3 22 9 35 11 28 6 -16 33 -5 33 13 0 8 6 14 14 14 8 0 18 9 21 20 3 11 15
20 26 20 10 0 19 5 19 10 0 6 9 10 20 10 11 0 20 5 20 10 0 6 -62 10 -165 10
l-164 0 6 -177 c3 -98 3 -203 -1 -234 -7 -54 -9 -57 -45 -69 -29 -9 -43 -9
-59 -1 -12 6 -35 13 -52 15 -17 2 -32 5 -33 7 -13 23 -37 81 -46 108 -14 45
-14 193 0 225 11 22 16 24 58 20 55 -6 76 5 66 35 -6 19 -34 28 -69 22 -19 -4
-45 11 -51 30 -6 18 -19 19 -465 19 -346 0 -459 -3 -462 -12 -3 -8 -63 -13
-211 -16 -184 -4 -207 -3 -213 12 -8 22 -128 23 -150 1 -13 -12 -46 -15 -175
-15 -133 0 -161 3 -165 15 -5 11 -22 15 -64 15 -39 0 -62 -5 -70 -15 -10 -12
-42 -15 -167 -15 -127 0 -155 3 -159 15 -5 11 -23 15 -78 15 -60 0 -73 -3 -83
-19z m485 -145 c8 -8 10 -251 2 -271 l-10 -25 -162 2 -163 3 -3 147 c-2 131
-1 147 14 150 19 3 317 -2 322 -6z m480 -143 l-3 -148 -170 0 -170 0 -4 25
c-1 14 0 80 4 148 l7 122 169 0 170 0 -3 -147z m490 134 c12 -14 18 -259 7
-276 -4 -7 -68 -11 -181 -11 l-174 0 0 143 c0 79 3 147 7 150 3 4 79 7 168 7
122 0 165 -3 173 -13z m1218 -344 c-11 -11 -19 6 -11 24 8 17 8 17 12 0 3 -10
2 -21 -1 -24z m-2186 -82 c11 -22 13 -186 3 -269 l-6 -52 -166 2 -166 3 4 160
c2 88 5 163 8 168 2 4 74 7 158 7 142 0 155 -2 165 -19z m477 2 c9 -21 11
-298 2 -307 -3 -4 -80 -8 -170 -9 l-164 -2 0 160 0 160 135 5 c74 3 147 7 162
8 18 1 30 -4 35 -15z m546 -18 c19 -26 38 -110 30 -131 -3 -7 -21 -14 -41 -16
l-37 -3 -3 -72 c-3 -88 10 -82 -197 -80 l-150 2 -3 140 c-1 77 0 150 3 163 5
22 7 22 193 22 187 -1 187 -1 205 -25z m331 -204 c3 -4 -6 -6 -19 -3 -14 2
-25 6 -25 8 0 8 39 4 44 -5z m294 -219 c3 -16 -2 -22 -16 -22 -22 0 -32 17
-24 38 7 20 37 9 40 -16z m-1648 -21 c16 -31 13 -326 -4 -340 -9 -8 -64 -11
-172 -9 l-159 3 -4 25 c-2 14 0 93 4 177 l7 152 87 4 c229 8 230 8 241 -12z
m481 -7 c5 -14 9 -92 9 -173 0 -114 -3 -151 -14 -160 -9 -8 -64 -11 -172 -9
l-159 3 -3 174 c-2 129 1 176 10 182 6 4 81 8 166 8 l153 -1 10 -24z m484
-164 l0 -175 -170 0 -170 0 -3 165 c-1 90 0 170 3 177 3 11 41 13 172 11 l168
-3 0 -175z m105 -136 c0 -13 -4 -24 -10 -24 -5 0 -10 14 -10 31 0 17 4 28 10
24 6 -3 10 -17 10 -31z m160 -4 c0 -5 -2 -10 -4 -10 -3 0 -8 5 -11 10 -3 6 -1
10 4 10 6 0 11 -4 11 -10z m160 -44 c0 -8 -5 -18 -11 -22 -14 -8 -33 11 -25
25 10 16 36 13 36 -3z m401 -321 c-1 -15 -24 -12 -29 3 -3 9 2 13 12 10 10 -1
17 -7 17 -13z m-521 -175 c0 -5 -2 -10 -4 -10 -3 0 -8 5 -11 10 -3 6 -1 10 4
10 6 0 11 -4 11 -10z m290 -1311 c0 -6 -4 -7 -10 -4 -5 3 -10 11 -10 16 0 6 5
7 10 4 6 -3 10 -11 10 -16z m-427 -416 c-7 -3 -13 -11 -13 -19 0 -8 -5 -14
-11 -14 -7 0 -10 -22 -7 -62 3 -59 1 -63 -24 -77 -15 -9 -29 -13 -33 -10 -10
10 43 151 66 175 12 13 25 21 28 18 3 -4 0 -9 -6 -11z m-64 -16 c-14 -12 -41
-35 -60 -52 -20 -17 -36 -40 -36 -54 -2 -29 -6 -33 -68 -66 l-50 -26 35 33
c19 18 46 41 60 51 27 19 29 19 -42 3 -15 -3 -43 -26 -64 -51 -48 -59 -64 -58
-22 3 43 63 40 61 151 117 54 27 101 53 103 57 3 4 8 8 12 8 4 0 -5 -11 -19
-23z m-19 -51 c0 -2 -8 -10 -17 -17 -16 -13 -17 -12 -4 4 13 16 21 21 21 13z
m-340 -41 c0 -8 -4 -15 -10 -15 -5 0 -10 7 -10 15 0 8 5 15 10 15 6 0 10 -7
10 -15z m-75 -35 c-3 -5 -1 -10 4 -10 6 0 11 -4 11 -8 0 -5 -13 -7 -30 -4 -16
2 -27 8 -24 13 3 5 9 7 14 4 5 -3 11 -1 15 5 3 5 8 10 11 10 3 0 2 -4 -1 -10z
m366 -22 c10 -18 9 -20 -6 -14 -10 3 -25 1 -33 -6 -11 -9 -9 -4 3 14 11 15 21
28 22 28 1 0 7 -10 14 -22z m142 0 c2 -7 -4 -30 -14 -50 -19 -38 -22 -88 -6
-99 5 -4 11 -18 12 -32 2 -14 6 -33 9 -44 3 -10 -1 -42 -8 -71 -8 -28 -10 -50
-6 -47 5 3 11 -4 15 -15 3 -11 14 -20 24 -20 11 0 39 -27 68 -67 27 -38 108
-135 179 -218 208 -241 220 -264 170 -322 -20 -23 -26 -25 -39 -14 -21 17 -37
6 -37 -25 0 -29 -3 -29 -42 -6 -21 12 -44 45 -80 117 -47 96 -118 261 -118
278 0 17 -92 196 -109 211 -18 16 -19 16 -25 -9 -4 -14 -14 -25 -22 -25 -12 0
-14 -5 -9 -17 30 -70 39 -103 30 -112 -12 -12 -165 7 -165 21 0 4 9 8 20 8 11
0 37 7 56 15 35 15 36 15 31 67 -3 29 -6 55 -6 57 -1 2 -8 -2 -16 -9 -13 -11
-15 -8 -15 14 0 16 13 40 34 62 28 30 52 90 41 102 -2 2 -30 3 -62 3 -77 0
-97 12 -63 39 l25 20 -30 0 -30 1 30 16 c33 18 46 33 39 45 -3 4 0 8 5 8 6 0
11 5 11 10 0 6 -12 10 -27 10 -16 0 -35 5 -43 10 -13 8 -13 10 2 10 10 0 25 9
35 19 10 11 30 22 45 26 14 4 35 15 45 25 21 22 40 25 46 8z m237 -3 c0 -8 -4
-15 -9 -15 -13 0 -22 16 -14 24 11 11 23 6 23 -9z m-865 -45 c3 -5 12 -7 20
-3 8 3 15 0 15 -6 0 -6 -6 -11 -13 -11 -17 0 -56 29 -40 30 6 0 14 -4 18 -10z
m983 -43 c2 -10 -3 -17 -12 -17 -18 0 -29 16 -21 31 9 14 29 6 33 -14z m-618
-5 c0 -9 -67 -32 -91 -32 -11 1 33 20 89 39 1 1 2 -3 2 -7z m168 -204 c-5 -32
-28 -35 -28 -4 0 17 5 26 16 26 10 0 14 -7 12 -22z m-56 -93 c-10 -16 -22 47
-15 75 6 22 8 19 14 -20 3 -25 4 -49 1 -55z m-112 59 c0 -14 -4 -23 -10 -19
-5 3 -10 15 -10 26 0 10 5 19 10 19 6 0 10 -12 10 -26z m-30 6 c0 -5 -5 -10
-11 -10 -5 0 -7 5 -4 10 3 6 8 10 11 10 2 0 4 -4 4 -10z m30 -97 c-11 -17 -11
-17 -6 0 3 10 7 28 7 40 2 22 2 22 6 0 2 -12 -1 -30 -7 -40z m617 -39 c-3 -4
-14 -3 -24 0 -15 6 -15 8 -3 16 16 10 39 -4 27 -16z m-490 -20 c-9 -9 -27 6
-27 22 0 13 2 13 16 -1 9 -9 14 -18 11 -21z m43 26 c0 -5 -2 -10 -4 -10 -3 0
-8 5 -11 10 -3 6 -1 10 4 10 6 0 11 -4 11 -10z m-146 -36 c3 -8 2 -12 -4 -9
-6 3 -10 10 -10 16 0 14 7 11 14 -7z m209 -141 c3 -10 8 -40 12 -68 8 -56 19
-75 46 -75 36 0 51 -69 28 -127 -10 -26 -12 -27 -19 -8 -8 18 -9 18 -9 1 -1
-12 -6 -16 -16 -12 -8 3 -19 -2 -24 -12 -5 -9 -12 -14 -16 -10 -4 3 2 19 12
34 l18 29 -35 -26 c-51 -38 -58 -41 -66 -27 -4 7 -4 10 1 6 4 -4 25 6 47 23
31 25 36 34 27 45 -13 16 -50 18 -97 5 -20 -6 -30 -6 -27 0 4 5 12 9 19 9 19
0 66 39 66 55 0 7 -10 16 -22 18 l-23 4 23 8 c26 9 26 9 6 43 -14 25 -14 31 1
65 16 39 40 49 48 20z m595 -140 c-5 -26 -38 -29 -38 -4 0 15 6 21 21 21 14 0
19 -5 17 -17z m-582 -209 c-4 -9 -9 -15 -11 -12 -3 3 -3 13 1 22 4 9 9 15 11
12 3 -3 3 -13 -1 -22z m52 -20 c-2 -12 -13 -20 -28 -21 -14 -1 -38 -5 -54 -9
-21 -5 -27 -3 -24 6 2 7 17 14 33 16 17 2 36 12 44 24 16 24 35 13 29 -16z
m17 -99 c22 -30 43 -55 48 -55 4 0 5 -4 2 -10 -3 -5 -2 -10 3 -10 11 0 72 -84
72 -100 0 -11 33 -62 57 -88 28 -29 26 -60 -4 -87 -54 -49 -81 -59 -126 -44
-37 12 -69 45 -73 76 -2 8 -25 67 -53 132 -28 64 -54 131 -57 149 -6 30 -4 32
20 32 14 0 26 5 26 12 0 12 29 48 39 48 3 0 24 -25 46 -55z m-248 -86 c-3 -38
-13 -100 -21 -137 -8 -37 -20 -95 -27 -130 -11 -56 -29 -94 -29 -60 0 37 33
244 40 253 5 6 14 41 20 78 7 37 14 67 17 67 3 0 3 -32 0 -71z m107 -131 c27
-160 32 -238 18 -238 -14 0 -31 95 -42 230 -6 69 -12 141 -15 160 -2 22 -1 29
4 20 5 -8 20 -85 35 -172z m-49 25 c3 -48 8 -102 11 -120 3 -24 -1 -37 -17
-52 -12 -11 -25 -19 -28 -17 -3 2 -2 75 3 162 10 169 21 178 31 27z m-58 -55
c-3 -8 -6 -5 -6 6 -1 11 2 17 5 13 3 -3 4 -12 1 -19z m-10 -125 c-3 -10 -5 -2
-5 17 0 19 2 27 5 18 2 -10 2 -26 0 -35z m661 35 c19 -19 14 -28 -18 -28 -18
0 -30 5 -30 13 0 28 27 36 48 15z m-289 -104 c-19 -19 -79 -30 -79 -15 0 16
84 53 89 40 2 -6 -3 -17 -10 -25z m-373 17 c-4 -5 14 -10 39 -11 67 -1 75 -3
75 -11 0 -5 -15 -6 -32 -3 -43 7 -49 7 -75 -1 -17 -5 -23 -3 -23 7 0 8 3 18 7
21 9 10 15 8 9 -2z m728 -437 c7 -19 -1 -34 -19 -34 -21 0 -28 19 -15 35 16
19 26 19 34 -1z m130 -43 c3 -4 0 -16 -7 -25 -12 -16 -14 -16 -26 -2 -7 8 -10
20 -6 26 8 12 32 13 39 1z m16 -621 c0 -5 -7 -10 -15 -10 -8 0 -15 5 -15 10 0
6 7 10 15 10 8 0 15 -4 15 -10z m100 -496 c0 -8 -42 -45 -46 -41 -2 2 2 10 11
17 14 11 13 14 -2 25 -16 12 -14 12 10 8 15 -3 27 -7 27 -9z m286 -43 c13 -13
111 -68 174 -98 52 -25 110 -63 96 -63 -4 0 -63 27 -132 60 -120 59 -164 86
-164 102 0 11 14 10 26 -1z m-166 -108 c0 -13 4 -23 8 -23 10 0 32 -89 32
-125 l0 -23 76 23 c86 27 106 39 52 33 -21 -2 -38 0 -38 4 0 4 11 8 24 8 13 0
26 7 30 15 3 8 1 15 -3 15 -5 0 -11 -4 -13 -10 -2 -5 -9 -6 -17 -1 -11 7 -10
11 7 20 16 9 24 8 36 -5 9 -9 13 -21 10 -27 -5 -9 -4 -9 5 -1 10 9 10 16 -1
33 -7 11 -18 21 -25 21 -7 0 -13 9 -13 21 0 16 4 19 18 14 9 -4 35 -11 56 -17
52 -12 62 -19 42 -30 -9 -5 -20 -7 -25 -4 -4 3 -6 -6 -3 -19 6 -35 22 -42 22
-10 0 25 0 25 31 10 16 -9 33 -23 36 -31 4 -11 8 -12 13 -4 10 17 42 0 35 -18
-3 -9 -3 -13 1 -9 4 4 16 0 26 -10 11 -10 18 -12 18 -4 0 7 12 0 26 -14 29
-29 26 -56 -4 -48 -14 3 -21 -2 -25 -17 -4 -17 -3 -19 8 -10 8 6 48 14 89 17
75 6 75 6 86 -21 14 -38 12 -66 -4 -66 -8 0 -21 -9 -29 -21 -8 -11 -17 -15
-19 -9 -3 10 -185 -21 -210 -37 -7 -4 -9 1 -6 15 5 18 4 19 -13 9 -11 -7 -15
-13 -9 -15 16 -6 12 -16 -12 -31 -21 -13 -22 -13 -10 1 10 13 9 16 -8 21 -12
3 -20 13 -20 27 0 19 -1 20 -16 6 -8 -9 -12 -20 -9 -26 8 -13 -6 -13 -40 0
-25 10 -63 40 -50 40 3 0 -3 10 -15 22 -24 26 -25 34 -4 46 13 7 10 13 -20 30
-42 25 -47 42 -12 42 13 0 26 6 29 13 4 10 -3 12 -24 9 -16 -2 -32 -8 -35 -13
-3 -5 -16 -9 -29 -9 -20 0 -23 -4 -19 -27 4 -21 2 -25 -6 -17 -6 6 -12 27 -12
45 -1 19 -3 29 -5 22 -2 -7 -11 -9 -19 -6 -12 4 -12 1 1 -23 7 -15 12 -31 9
-35 -6 -11 -45 2 -51 17 -3 8 -11 14 -19 14 -8 0 -14 10 -14 23 0 29 57 58 71
36 22 -37 20 35 -7 171 -3 19 -2 22 6 10 5 -8 10 -25 10 -37z m160 -3 c0 -5
-4 -10 -10 -10 -5 0 -10 5 -10 10 0 6 5 10 10 10 6 0 10 -4 10 -10z m786 -49
c-6 -10 20 -67 35 -76 12 -8 12 -45 -1 -45 -5 0 -13 6 -17 14 -4 7 -18 18 -30
25 -23 12 -32 51 -13 51 6 0 10 9 10 20 0 11 5 20 11 20 5 0 8 -4 5 -9z
m-1173 -53 c-11 -13 -25 -32 -31 -43 -9 -16 -11 -17 -12 -4 0 20 37 69 52 69
7 0 2 -10 -9 -22z m331 1 c-8 -14 -31 -11 -37 4 -4 10 2 13 19 9 13 -2 21 -8
18 -13z m372 -31 l19 -23 -25 20 c-14 11 -27 21 -29 22 -2 2 0 3 6 3 5 0 18
-10 29 -22z m-589 -54 c-3 -3 -12 -4 -19 -1 -8 3 -5 6 6 6 11 1 17 -2 13 -5z
m-46 -27 c30 -12 93 -43 140 -69 47 -26 103 -54 125 -62 22 -7 90 -39 150 -70
60 -30 156 -75 214 -99 233 -98 253 -110 213 -120 -10 -3 -3 -5 15 -6 21 -1
32 -6 32 -15 0 -20 -17 -29 -24 -14 -4 7 -4 3 -2 -9 2 -13 0 -23 -5 -23 -5 0
-9 4 -9 8 0 4 -13 9 -28 10 -16 1 -57 14 -92 28 -68 27 -353 158 -384 175 -10
6 -36 17 -57 24 -33 12 -96 45 -254 134 -22 13 -59 41 -82 64 -71 68 -51 86
48 44z m84 -5 c-3 -3 -11 0 -18 7 -9 10 -8 11 6 5 10 -3 15 -9 12 -12z m152
-14 c-3 -8 -6 -5 -6 6 -1 11 2 17 5 13 3 -3 4 -12 1 -19z m50 -24 c-3 -3 -12
-4 -19 -1 -8 3 -5 6 6 6 11 1 17 -2 13 -5z m483 -84 c0 -5 -4 -10 -10 -10 -5
0 -10 5 -10 10 0 6 5 10 10 10 6 0 10 -4 10 -10z m-53 -20 c-6 -22 18 -29 26
-7 4 7 6 6 6 -5 1 -22 -9 -48 -19 -48 -8 0 -21 32 -25 63 -1 9 2 17 8 17 5 0
7 -9 4 -20z m80 -27 c-3 -10 -5 -2 -5 17 0 19 2 27 5 18 2 -10 2 -26 0 -35z
m-117 12 c0 -8 -2 -15 -4 -15 -2 0 -6 7 -10 15 -3 8 -1 15 4 15 6 0 10 -7 10
-15z m87 -17 c-3 -7 -5 -2 -5 12 0 14 2 19 5 13 2 -7 2 -19 0 -25z m-157 -78
c10 0 23 -6 29 -14 9 -11 -3 -9 -46 6 -32 11 -62 25 -68 30 -5 5 7 3 29 -6 21
-9 46 -16 56 -16z m-866 -217 c38 -119 78 -295 68 -305 -5 -5 -46 -16 -92 -24
-45 -7 -101 -20 -124 -28 -22 -7 -62 -17 -88 -20 l-47 -7 48 88 c27 48 75 135
107 193 33 58 68 122 79 143 11 20 20 37 21 37 2 0 14 -35 28 -77z m1403 5
c-3 -8 -6 -5 -6 6 -1 11 2 17 5 13 3 -3 4 -12 1 -19z m-20 -80 c-3 -7 -5 -2
-5 12 0 14 2 19 5 13 2 -7 2 -19 0 -25z m147 -125 c-8 -30 -10 -55 -12 -135
-2 -54 -13 -75 -25 -45 -5 13 17 161 28 190 11 26 16 20 9 -10z m-27 -245 c-3
-7 -5 -2 -5 12 0 14 2 19 5 13 2 -7 2 -19 0 -25z m-2392 -138 c-3 -5 -10 -10
-16 -10 -5 0 -9 5 -9 10 0 6 7 10 16 10 8 0 12 -4 9 -10z m-40 -28 c2 -20 -3
-22 -51 -22 -29 0 -59 -3 -68 -6 -20 -8 -21 12 -2 31 11 12 80 24 110 20 5 -1
10 -11 11 -23z m249 3 c-7 -17 -49 -45 -68 -45 -8 0 -20 -8 -25 -17 -6 -10
-11 -12 -11 -5 0 7 -15 12 -40 12 -22 0 -40 5 -40 10 0 6 6 10 13 11 10 0 10
2 0 6 -7 2 -13 13 -13 22 0 16 11 18 94 19 77 1 94 -2 90 -13z m-44 -95 c0 -5
-4 -10 -10 -10 -5 0 -10 5 -10 10 0 6 5 10 10 10 6 0 10 -4 10 -10z m1923
-1614 c4 -10 1 -13 -9 -9 -15 6 -19 23 -5 23 5 0 11 -7 14 -14z"/>
<path d="M1622 5025 c0 -16 2 -22 5 -12 2 9 2 23 0 30 -3 6 -5 -1 -5 -18z"/>
<path d="M2876 3025 c-3 -8 -1 -15 4 -15 6 0 10 7 10 15 0 8 -2 15 -4 15 -2 0
-6 -7 -10 -15z"/>
<path d="M2607 2989 c7 -7 15 -10 18 -7 3 3 -2 9 -12 12 -14 6 -15 5 -6 -5z"/>
<path d="M2899 2948 c4 -28 6 -29 9 -9 2 13 0 27 -5 32 -6 6 -7 -3 -4 -23z"/>
<path d="M3155 2895 l-50 -13 40 -1 c54 -1 115 10 115 20 0 12 -45 10 -105 -6z"/>
<path d="M2980 2864 c0 -8 5 -12 10 -9 6 3 10 10 10 16 0 5 -4 9 -10 9 -5 0
-10 -7 -10 -16z"/>
<path d="M2851 2824 c0 -11 3 -14 6 -6 3 7 2 16 -1 19 -3 4 -6 -2 -5 -13z"/>
<path d="M8110 10230 c0 -6 12 -22 26 -35 16 -15 23 -29 18 -36 -5 -9 -10 -7
-15 7 -5 10 -8 -48 -8 -131 0 -82 -3 -172 -7 -198 -5 -43 -4 -49 15 -54 18 -4
21 -13 21 -54 0 -26 -3 -50 -8 -53 -9 -5 -8 -375 1 -396 8 -18 4 -171 -4 -185
-10 -17 -10 -197 0 -209 6 -7 6 -77 1 -181 -5 -94 -9 -225 -9 -293 0 -107 2
-124 17 -130 13 -5 10 -8 -13 -12 -28 -5 -29 -7 -26 -54 2 -39 -1 -51 -18 -63
-30 -21 -26 -31 19 -44 44 -13 42 -26 -5 -31 l-30 -3 0 -219 c0 -121 -2 -207
-5 -190 -6 30 -20 -155 -20 -263 l0 -61 113 -4 c61 -2 114 -3 117 -2 8 3 -7
412 -21 587 -11 145 -14 160 -33 167 -20 7 -20 7 3 15 17 5 21 12 17 28 -3 12
-6 25 -6 30 0 4 -11 7 -25 7 -30 0 -29 -2 -9 39 18 35 13 61 -11 61 -9 0 -13
5 -9 11 3 6 6 95 4 197 -2 218 -1 344 3 500 1 63 -1 116 -4 118 -4 2 -6 48 -4
101 2 54 3 105 3 113 0 8 1 102 2 208 1 166 -1 193 -14 198 -23 9 -20 51 4 59
26 8 35 45 21 87 -12 36 -9 346 3 367 5 8 -9 11 -48 11 -32 0 -56 -4 -56 -10z
m75 -2180 c3 -5 -1 -10 -9 -10 -8 0 -18 5 -21 10 -3 6 1 10 9 10 8 0 18 -4 21
-10z"/>
<path d="M9345 10223 c-3 -10 -3 -142 2 -293 4 -151 9 -263 11 -248 5 40 24
50 104 54 40 2 87 6 103 9 64 11 65 9 70 -295 3 -151 8 -286 11 -300 5 -27
-21 -90 -37 -90 -17 0 -9 -18 9 -22 24 -7 32 -52 32 -179 0 -108 8 -159 24
-164 106 -27 126 -37 174 -90 51 -55 110 -181 94 -197 -5 -5 -25 -2 -45 7 -20
8 -44 15 -54 15 -10 0 -43 12 -73 26 -30 15 -69 28 -86 29 -29 3 -32 0 -36
-28 -3 -18 -3 -176 0 -352 3 -176 4 -561 3 -855 -2 -576 4 -770 23 -770 13 0
9 -120 -5 -135 -14 -14 -10 -353 5 -400 11 -37 14 -40 47 -37 19 1 41 11 51
22 19 24 53 27 44 5 -4 -12 0 -14 17 -10 12 3 78 16 147 31 69 14 130 27 135
28 6 1 36 8 68 16 l57 13 -1 126 c0 121 -1 124 -14 83 -33 -107 -109 -162
-233 -170 -71 -5 -75 -4 -68 14 4 10 14 50 23 87 8 37 25 82 37 100 l22 33
-33 -4 c-84 -10 -178 37 -245 122 l-39 49 28 19 c52 34 158 61 228 56 64 -4
65 -4 50 17 -54 72 -68 177 -39 280 10 36 23 65 29 65 5 0 45 -18 87 -40 84
-44 129 -90 152 -155 13 -35 15 183 15 1752 l1 1793 -347 -1 c-192 0 -384 -4
-428 -8 -44 -5 -84 -4 -89 1 -15 12 -23 10 -31 -9z m284 -85 c8 -16 11 -66 9
-153 l-3 -130 -125 -8 c-68 -4 -130 -5 -137 -3 -10 4 -13 34 -13 113 0 146 2
149 58 158 55 8 153 32 160 40 13 12 40 3 51 -17z m46 -8 c3 -5 -1 -10 -9 -10
-9 0 -16 5 -16 10 0 6 4 10 9 10 6 0 13 -4 16 -10z m491 -27 c-11 -11 -19 6
-11 24 8 17 8 17 12 0 3 -10 2 -21 -1 -24z m-466 -754 c0 -11 -4 -17 -10 -14
-5 3 -10 13 -10 21 0 8 5 14 10 14 6 0 10 -9 10 -21z m220 -239 c0 -5 -2 -10
-4 -10 -3 0 -8 5 -11 10 -3 6 -1 10 4 10 6 0 11 -4 11 -10z m288 -966 c-10
-10 -28 6 -28 24 0 15 1 15 17 -1 9 -9 14 -19 11 -23z m-508 -1600 c0 -8 -4
-14 -10 -14 -5 0 -10 9 -10 21 0 11 5 17 10 14 6 -3 10 -13 10 -21z"/>
<path d="M5344 9723 c-15 -20 -40 -59 -56 -87 -25 -46 -28 -48 -28 -23 0 15
-4 27 -10 27 -5 0 -10 -14 -10 -31 0 -36 -19 -120 -30 -133 -5 -4 -13 1 -19
13 -7 12 -17 21 -23 21 -7 0 -27 14 -45 32 -32 31 -33 31 -33 9 0 -23 -24 -25
-26 -3 -1 7 -2 15 -3 18 0 3 -11 -2 -23 -10 -12 -9 -30 -16 -40 -16 -10 0 -38
-10 -62 -22 -35 -17 -43 -25 -34 -35 12 -15 32 -18 23 -4 -8 14 62 2 103 -16
40 -19 41 -33 2 -33 -17 0 -48 -9 -70 -20 -22 -11 -44 -20 -50 -20 -6 0 -17
-6 -25 -12 -7 -7 -33 -29 -58 -48 -25 -19 -55 -51 -67 -70 -12 -19 -19 -27
-16 -17 9 28 0 20 -34 -33 -18 -27 -34 -50 -37 -50 -3 0 -2 19 1 43 l6 42 -15
-35 -15 -35 6 45 5 45 -40 -70 c-25 -43 -41 -62 -41 -50 0 11 6 29 13 40 8 11
22 34 33 50 17 27 17 28 1 16 -9 -7 -38 -48 -64 -90 -26 -42 -52 -83 -59 -91
-11 -13 -64 -136 -64 -148 0 -3 10 3 21 14 12 10 20 15 18 9 -19 -44 -35 -65
-48 -66 -9 0 -11 -3 -4 -5 19 -8 87 32 147 87 31 28 56 47 56 43 0 -4 15 5 33
21 17 17 3 -1 -33 -38 -70 -73 -180 -161 -245 -195 -42 -22 -36 -29 12 -12
l28 10 -30 -25 c-50 -43 -53 -44 -61 -37 -4 4 -4 2 0 -5 4 -7 -3 -36 -15 -65
-38 -95 -40 -101 -36 -104 2 -3 16 24 31 60 15 35 39 73 53 86 l26 22 -7 -38
c-4 -22 -9 -48 -12 -59 -4 -17 -3 -17 6 -5 9 12 10 9 6 -15 -3 -16 -8 -57 -11
-90 -4 -33 -14 -73 -22 -90 -22 -44 -134 -155 -158 -156 -11 0 -29 -4 -40 -9
-48 -22 73 5 143 31 42 16 78 27 80 24 8 -8 -105 -65 -140 -71 -21 -4 -38 -10
-38 -15 0 -12 8 -11 72 2 29 7 64 19 78 27 l25 16 -27 -30 c-29 -31 -48 -96
-46 -154 0 -26 2 -29 5 -10 11 64 35 128 54 146 l22 19 -6 -48 c-4 -26 -9 -98
-12 -160 -6 -103 -5 -110 9 -87 8 14 16 50 17 80 2 46 3 48 6 16 4 -35 5 -37
18 -20 8 11 15 44 16 74 2 51 3 52 6 13 2 -24 8 -43 13 -43 44 0 -17 -138 -91
-204 -55 -50 -57 -62 -2 -20 31 23 33 24 33 5 0 -10 -12 -29 -27 -40 l-28 -22
39 16 c49 19 56 19 56 -2 0 -30 19 -88 35 -108 13 -18 13 -16 0 17 -23 58 -18
57 21 -5 19 -31 37 -57 39 -57 2 0 -7 24 -20 53 -27 57 -31 102 -13 142 16 35
25 31 31 -15 3 -23 21 -75 41 -117 20 -41 36 -79 36 -84 0 -12 -73 -78 -118
-106 -28 -19 -31 -22 -12 -18 14 4 43 18 64 32 21 14 45 26 52 27 7 1 22 10
34 21 11 10 20 14 20 10 0 -5 7 0 15 11 10 13 14 15 15 5 0 -11 5 -10 20 4 11
10 20 13 20 7 0 -10 -83 -72 -97 -72 -12 0 -114 -62 -109 -67 3 -3 29 9 58 25
l54 31 27 -72 c26 -67 68 -149 52 -102 -4 11 -16 49 -26 85 -36 123 -20 133
47 29 l46 -72 -13 -66 c-6 -36 -17 -69 -23 -73 -6 -4 -7 -11 -2 -15 4 -4 14 0
21 11 8 10 18 15 24 11 7 -4 11 5 11 24 0 16 4 32 9 35 4 3 16 -52 26 -122 17
-124 17 -318 1 -382 -4 -14 0 -8 8 12 20 51 36 171 36 271 0 45 5 89 10 97 8
12 10 10 10 -10 1 -50 17 -53 29 -6 12 47 24 58 35 30 19 -49 36 -157 37 -232
l2 -87 11 87 c12 92 35 142 37 77 0 -18 4 -43 9 -54 12 -27 12 148 1 198 -10
40 1 50 19 17 6 -12 31 -78 56 -148 39 -108 45 -138 45 -199 0 -40 1 -73 3
-73 3 0 17 37 31 81 31 92 42 90 52 -7 7 -64 12 -64 22 3 l7 48 22 -58 c23
-60 29 -123 13 -129 -24 -8 21 -147 96 -298 70 -138 129 -246 359 -647 71
-125 71 -122 17 -211 l-20 -33 -71 129 c-171 309 -372 752 -405 892 -6 27 -15
50 -19 50 -9 0 2 -110 14 -132 4 -10 22 -55 38 -102 43 -123 146 -335 299
-619 l133 -247 -58 -123 c-67 -144 -157 -303 -170 -300 -15 2 -96 256 -239
748 -28 95 -89 381 -106 500 -14 88 -7 160 20 215 23 47 21 66 -2 28 -28 -45
-103 -173 -116 -200 -8 -16 -19 -24 -27 -21 -10 4 -12 0 -8 -11 4 -11 2 -16
-6 -14 -6 2 -20 -12 -29 -29 -10 -18 -21 -30 -24 -27 -3 3 -8 -34 -11 -83 -4
-48 -20 -187 -36 -308 -17 -121 -34 -260 -40 -310 -5 -49 -23 -196 -40 -325
-38 -294 -65 -534 -85 -765 -8 -99 -19 -220 -25 -270 -5 -49 -9 -115 -8 -145
l2 -55 3 50 c2 28 13 120 24 205 12 85 27 205 34 265 7 61 20 155 29 210 9 55
16 118 17 140 0 29 2 35 8 21 10 -27 25 -3 16 25 -5 13 -2 25 6 31 11 7 11 11
2 15 -7 2 -13 9 -13 14 0 6 5 7 11 3 8 -5 10 2 6 21 -3 16 1 38 8 49 7 12 15
44 18 73 3 28 15 70 26 92 12 22 21 51 21 65 0 14 4 27 10 31 5 3 7 12 3 20
-3 8 -1 15 4 15 6 0 9 33 7 78 -3 88 6 222 15 222 7 0 20 -61 57 -269 30 -172
44 -235 90 -406 111 -410 167 -575 193 -575 5 0 0 24 -11 52 -33 86 -56 178
-47 184 5 3 7 10 3 15 -3 5 -10 6 -16 3 -6 -4 -8 -1 -6 7 3 8 10 13 16 12 5
-1 8 7 5 17 -3 11 -10 20 -15 20 -6 0 -8 11 -6 25 3 14 1 28 -3 31 -5 3 -9 15
-9 27 0 18 2 20 11 7 9 -12 10 -12 5 3 -3 11 -9 30 -12 43 -3 13 -11 24 -17
24 -5 0 -2 9 7 19 20 22 24 55 11 85 -8 17 -5 19 23 13 31 -6 32 -5 26 19 -6
25 -5 25 16 14 15 -8 20 -8 16 -1 -12 19 3 32 24 21 16 -9 21 -6 26 14 11 45
66 25 80 -28 3 -14 10 -28 14 -31 9 -6 -20 93 -45 151 -23 53 -42 112 -50 154
-12 57 2 31 35 -69 18 -52 54 -148 82 -215 27 -67 55 -133 61 -148 9 -23 6
-36 -20 -90 -40 -82 -63 -136 -63 -149 0 -6 -9 -24 -21 -40 -11 -16 -21 -48
-23 -71 -1 -24 -6 -52 -11 -63 -4 -11 -5 -17 0 -13 4 4 22 42 39 85 45 109
486 1003 730 1478 131 257 200 419 194 459 -2 13 -27 -35 -62 -119 -33 -77
-110 -239 -172 -360 -288 -568 -401 -794 -419 -835 -39 -94 -87 -194 -112
-237 l-26 -44 -20 43 c-40 88 -46 120 -27 148 9 14 83 156 165 315 81 160 159
310 173 335 27 50 64 114 203 360 123 219 226 427 240 487 6 26 18 67 26 90
13 37 14 45 2 60 -12 15 -12 16 6 10 19 -7 19 -6 3 7 -21 15 -23 66 -7 136 16
76 19 78 40 38 23 -44 34 -49 25 -12 -4 16 -3 23 3 20 6 -4 8 14 4 46 -3 30 0
72 8 98 l12 45 8 -30 c6 -26 7 -23 8 20 2 47 2 49 17 30 9 -11 21 -33 26 -48
6 -15 12 -26 14 -24 2 2 -2 22 -10 45 -8 22 -12 43 -9 46 3 3 8 30 12 61 3 31
11 56 16 56 6 -1 13 -40 17 -88 12 -151 23 -153 23 -5 0 120 3 143 22 181 l21
45 7 -37 c4 -20 11 -37 15 -37 4 0 11 -17 14 -37 4 -21 10 -51 13 -68 7 -30 7
-30 13 10 6 39 7 39 17 15 16 -35 99 -127 108 -118 4 4 -4 17 -17 30 -48 45
-60 83 -62 197 0 58 3 133 8 166 l8 60 14 -30 c13 -30 13 -30 8 -2 -4 16 -2
27 5 27 6 0 11 -4 11 -10 0 -5 9 -14 20 -20 19 -10 19 -10 1 22 -24 41 -27 61
-17 122 5 31 11 45 16 37 18 -31 28 34 16 114 -7 48 -6 50 16 50 23 0 24 -3
23 -65 -1 -36 -5 -78 -8 -95 -5 -21 0 -15 18 20 14 28 25 59 25 69 0 15 3 17
11 9 6 -6 12 -39 13 -72 0 -33 2 -61 4 -61 1 0 7 12 12 26 6 14 14 23 19 19
20 -12 26 130 9 205 -2 12 7 15 45 15 26 0 47 1 47 3 0 1 -12 7 -26 12 -14 6
-23 14 -20 18 3 5 35 24 71 42 72 36 92 55 49 44 -17 -4 -25 -3 -21 3 4 7 -9
9 -37 6 -59 -7 -131 30 -115 59 5 10 7 23 4 28 -3 6 1 10 10 10 14 0 14 2 3
13 -7 7 -22 17 -33 22 -40 16 12 17 69 1 59 -18 86 -20 86 -8 0 4 -15 14 -32
21 -18 8 -41 25 -50 37 -10 12 -32 27 -50 34 -57 23 -140 86 -210 157 -73 75
-87 98 -35 60 17 -14 52 -35 77 -47 l45 -23 -20 23 -20 23 25 -14 c40 -22 160
-58 160 -48 0 5 -4 9 -10 9 -5 0 -10 5 -10 10 0 6 8 10 18 10 14 0 15 2 2 10
-20 13 -33 13 -25 0 9 -15 -11 -12 -23 3 -6 7 -51 33 -99 57 -67 33 -106 62
-164 120 -42 41 -81 86 -88 100 -10 19 -6 17 15 -8 78 -97 234 -203 362 -248
45 -16 54 -16 62 -4 5 8 6 18 3 23 -3 5 5 6 18 1 13 -4 32 -7 42 -6 9 0 17 -3
17 -9 0 -5 20 -9 45 -9 57 0 59 16 3 22 -62 7 -214 84 -280 142 -31 27 -55 53
-52 58 3 4 -11 22 -31 39 -20 18 -34 33 -32 36 2 2 40 -15 83 -37 81 -41 147
-59 158 -41 3 5 0 15 -7 23 -18 18 -67 91 -67 100 0 4 19 -5 43 -21 100 -66
99 -34 -2 37 -36 26 -84 61 -106 77 -42 30 -135 143 -135 164 0 7 -4 9 -10 6
-5 -3 -22 13 -37 36 -49 73 -57 83 -138 164 -45 45 -104 93 -135 109 -30 16
-76 46 -102 67 -25 22 -75 51 -110 66 -35 15 -83 40 -107 56 -40 27 -48 29
-105 23 -42 -4 -76 -2 -107 8 -24 8 -57 17 -72 20 -37 9 -25 26 17 26 47 0 96
11 96 21 0 5 -10 8 -22 8 -13 -1 -66 4 -118 11 -141 17 -306 11 -382 -16 -33
-12 -36 -11 -31 4 3 9 10 23 16 30 5 6 7 12 4 12 -2 0 -17 -17 -33 -37z m374
-93 c45 -6 112 -20 148 -31 82 -25 251 -117 315 -171 48 -40 156 -158 145
-158 -4 0 -32 24 -64 53 -144 133 -336 227 -546 271 -90 19 -129 14 -201 -22
-27 -13 -45 -18 -38 -11 6 8 11 19 10 24 -1 15 84 55 118 55 17 0 67 -5 113
-10z m16 -207 c33 -15 98 -51 144 -80 86 -55 113 -82 38 -38 -61 36 -164 75
-198 75 -50 0 -135 -39 -182 -84 -40 -39 -49 -43 -78 -37 -36 7 -36 9 -24 59
8 34 32 52 74 57 15 1 28 8 30 14 2 6 13 11 25 11 21 1 21 1 -2 14 l-24 13 29
11 c50 18 104 13 168 -15z m473 -85 c51 -51 93 -97 93 -103 0 -5 16 -25 34
-43 21 -21 32 -40 29 -52 -3 -10 0 -21 6 -24 13 -8 15 -56 3 -56 -21 0 -226
216 -213 224 5 3 11 1 13 -6 2 -6 10 -8 17 -4 14 9 16 6 -63 89 -44 46 -49 62
-10 32 32 -24 39 -17 8 10 -16 14 -25 25 -20 25 5 0 51 -42 103 -92z m-298 47
c18 -11 51 -35 73 -52 22 -18 44 -33 49 -33 5 0 9 -7 9 -15 0 -8 -5 -15 -11
-15 -5 0 -7 5 -4 10 3 6 4 10 1 10 -2 0 -12 3 -22 7 -13 5 -15 3 -9 -8 8 -12
-37 24 -128 104 -34 29 -17 26 42 -8z m-65 -67 c69 -28 90 -42 158 -112 122
-124 225 -309 211 -377 l-6 -32 -18 24 c-21 30 -69 82 -69 76 0 -3 11 -25 25
-48 26 -47 36 -112 13 -87 -7 7 -25 38 -40 68 -55 112 -154 282 -188 324 -46
57 -120 112 -181 133 -52 19 -60 29 -31 36 14 4 14 6 -5 12 -13 4 -23 12 -23
17 0 16 66 2 154 -34z m-56 -72 c47 -30 150 -138 187 -195 15 -24 41 -78 58
-120 16 -42 34 -82 40 -89 5 -7 25 -68 42 -135 43 -163 88 -305 109 -345 23
-44 48 -75 122 -148 87 -86 260 -175 409 -210 l60 -14 -61 5 c-72 5 -260 67
-257 83 2 7 -5 12 -15 12 -10 0 -37 16 -59 35 -47 40 -65 46 -37 13 l19 -23
-22 18 c-12 11 -19 25 -16 33 3 8 0 14 -6 14 -20 0 -105 93 -141 154 -62 107
-91 177 -127 311 -19 71 -38 141 -43 155 -4 14 -5 -61 -2 -166 4 -161 2 -200
-12 -245 -9 -30 -21 -72 -28 -94 -11 -39 -27 -79 -83 -202 -16 -35 -26 -65
-23 -68 3 -3 25 25 49 62 49 76 30 68 237 95 l102 14 56 -58 c31 -32 54 -58
51 -58 -2 0 -19 7 -36 16 -57 29 -303 1 -366 -40 -15 -10 -24 -20 -21 -23 3
-3 12 0 21 7 23 19 174 50 240 48 l60 -1 -72 -7 c-103 -11 -169 -36 -214 -81
-33 -33 -66 -105 -54 -117 2 -3 20 7 39 22 19 14 39 26 44 26 5 0 21 -18 36
-40 29 -45 54 -54 139 -54 65 0 93 19 111 76 6 18 19 34 29 36 31 6 19 -33
-25 -81 -39 -41 -48 -46 -103 -52 -86 -9 -89 -13 -14 -14 86 -1 169 38 233
111 58 66 71 59 63 -36 -3 -39 -13 -91 -21 -115 -14 -39 -14 -42 0 -30 13 11
14 9 9 -17 -12 -56 -98 -217 -139 -262 -22 -25 -32 -40 -21 -34 11 5 30 21 42
34 24 26 132 235 134 258 0 10 2 11 6 3 2 -7 -16 -58 -42 -114 -25 -56 -43
-104 -41 -106 9 -9 85 163 109 245 33 116 46 124 43 24 -2 -69 -7 -90 -37
-147 -43 -86 -107 -158 -165 -187 -25 -12 -41 -24 -35 -26 17 -6 95 33 133 66
l35 32 -12 -54 c-54 -233 -173 -413 -433 -657 -134 -126 -228 -155 -336 -106
-171 78 -455 300 -557 435 -52 69 -158 267 -148 277 4 3 28 1 54 -5 28 -6 68
-8 94 -3 l46 7 -57 7 c-59 6 -137 42 -195 88 -31 24 -97 111 -74 97 6 -4 11
-3 11 3 0 5 -8 15 -17 20 -10 6 -15 11 -11 11 4 0 42 -35 85 -79 43 -43 98
-88 122 -100 60 -28 63 -27 14 9 -22 16 -52 47 -66 68 -39 60 -117 220 -116
239 0 12 2 13 6 5 3 -7 44 -32 91 -56 l87 -42 82 16 c45 9 84 18 87 21 3 2
-27 6 -65 7 -73 2 -125 20 -155 53 -16 18 -16 19 5 19 12 0 48 -13 81 -30 60
-30 110 -37 160 -19 16 5 0 6 -42 2 -38 -3 -68 -3 -68 1 0 13 36 46 50 46 33
0 67 46 61 83 0 4 5 7 12 7 8 0 14 -12 14 -30 0 -21 -5 -30 -16 -30 -13 0 -13
-2 -2 -9 7 -5 10 -14 7 -20 -11 -17 25 -13 46 6 10 9 18 26 18 37 0 30 56 33
87 4 19 -18 23 -19 23 -6 0 47 -105 123 -199 144 -51 11 -53 12 -19 13 21 1
61 -8 90 -19 58 -22 71 -21 35 3 -63 41 -149 44 -284 10 -35 -8 -66 -13 -69
-10 -3 3 3 25 14 49 l19 45 84 11 c46 7 134 12 196 12 125 0 136 9 65 51 -34
20 -46 21 -142 16 -58 -4 -122 -11 -143 -17 -22 -6 -40 -10 -42 -8 -2 2 0 105
4 228 7 216 8 227 31 258 13 18 30 32 37 32 7 0 21 8 32 19 10 10 39 21 65 25
25 4 46 12 46 18 0 6 10 8 23 4 12 -3 41 1 64 9 23 8 58 12 78 10 21 -3 43 -1
49 4 7 6 27 10 46 10 19 -1 60 0 90 2 72 3 166 -26 188 -59 32 -49 53 -163 59
-317 l5 -150 -26 -24 c-31 -29 -34 -66 -7 -74 14 -3 23 4 35 32 26 58 16 328
-18 499 -40 200 -89 328 -169 449 -56 85 -75 93 -124 57 -21 -16 -42 -33 -46
-39 -19 -23 7 43 30 77 53 78 131 99 201 54z m-888 -41 c-7 -8 -17 -12 -22 -9
-5 3 -1 12 9 19 22 17 30 11 13 -10z m1248 -16 c7 -11 32 -28 55 -38 49 -22
106 -71 100 -88 -2 -6 10 -27 27 -46 l31 -36 -20 -42 c-12 -24 -21 -50 -22
-58 0 -10 -5 -6 -12 9 -6 14 -22 36 -34 50 -13 14 -23 29 -23 33 0 12 -63 103
-98 142 -8 9 -12 21 -9 28 2 6 -2 24 -10 40 -16 31 -4 37 15 6z m-1298 -40
c-7 -11 -14 -19 -16 -16 -7 7 7 37 17 37 6 0 5 -9 -1 -21z m1278 6 c-2 -5 -8
-10 -15 -11 -6 -1 -9 4 -6 12 6 16 27 15 21 -1z m-1342 -53 l-29 -27 23 32
c13 18 26 30 29 28 3 -3 -8 -18 -23 -33z m45 5 c-6 -8 -12 -22 -14 -33 -5 -33
-25 -60 -36 -49 -10 11 36 94 53 95 5 0 3 -6 -3 -13z m56 -93 c-37 -36 -67
-69 -67 -74 0 -5 -9 -12 -21 -15 -14 -5 -35 -35 -61 -89 -24 -49 -37 -69 -35
-51 5 27 4 28 -9 10 -8 -10 -14 -27 -14 -37 0 -22 -7 -23 -26 -4 -13 13 -11
23 12 80 14 36 31 64 37 63 7 -1 11 10 10 28 -1 17 1 22 4 13 6 -22 10 -22 29
-4 8 8 11 23 8 33 -4 13 -3 14 3 5 8 -10 13 -9 24 4 31 38 125 104 148 104 22
0 17 -8 -42 -66z m58 -50 c-21 -18 -24 -24 -10 -19 11 4 29 10 39 13 19 5 19
4 -1 -17 -20 -21 -83 -132 -83 -145 0 -3 5 -6 10 -6 6 0 10 5 10 11 0 18 61
90 71 83 5 -3 5 -12 0 -23 -5 -9 -6 -23 -1 -30 6 -10 11 -8 20 10 28 53 120
123 150 114 12 -4 20 -2 20 5 0 7 7 7 22 -1 22 -12 22 -12 3 -21 -32 -14 -73
-81 -90 -144 -11 -42 -19 -143 -25 -344 -9 -275 -14 -330 -30 -330 -17 0 -20
76 -14 300 5 175 4 232 -5 224 -11 -10 -26 -115 -35 -252 -4 -68 -10 -92 -20
-81 -4 5 9 189 20 263 4 31 3 46 -4 42 -5 -3 -15 -42 -22 -87 -6 -44 -14 -87
-17 -95 -8 -21 -23 -17 -23 6 0 15 -7 20 -25 20 -25 0 -25 1 -25 83 0 45 5
100 10 122 5 22 7 41 6 43 -6 5 -45 -120 -52 -166 -10 -62 -24 -51 -24 18 0
52 -2 60 -19 60 -12 0 -21 9 -25 26 -8 31 -15 27 -22 -12 -7 -37 -14 -44 -14
-13 0 36 37 174 60 226 11 26 29 53 40 60 11 8 17 20 14 26 -4 7 -4 9 0 5 5
-4 13 -3 20 3 46 38 64 48 81 48 17 0 16 -3 -10 -25z m1423 -45 c-18 -12 -23
17 -6 38 12 15 13 14 16 -7 2 -12 -2 -27 -10 -31z m-1574 -36 c-9 -21 -22 -59
-29 -84 -7 -25 -18 -55 -24 -65 -25 -39 -3 57 28 122 32 68 52 90 25 27z m801
-133 c-3 -5 -11 -10 -16 -10 -6 0 -7 5 -4 10 3 6 11 10 16 10 6 0 7 -4 4 -10z
m606 -157 c6 -18 14 -33 18 -33 4 0 18 -20 30 -45 12 -25 27 -45 33 -45 6 0 8
-3 5 -7 -4 -3 0 -15 10 -25 30 -33 3 -19 -37 20 -38 36 -90 135 -104 197 l-7
30 21 -30 c11 -16 25 -45 31 -62z m-35 -210 c26 -49 54 -96 62 -106 8 -9 13
-19 11 -21 -2 -2 -35 -5 -74 -7 l-70 -4 4 105 c3 97 6 120 16 120 2 0 25 -39
51 -87z m208 -38 c14 -24 11 -22 -18 10 -19 22 -35 46 -36 54 0 15 24 -14 54
-64z m-304 -19 c0 -78 -2 -84 -22 -89 -12 -4 -24 -4 -27 -2 -4 5 41 175 46
175 2 0 3 -38 3 -84z m-1760 -6 c0 -5 -5 -10 -11 -10 -5 0 -7 5 -4 10 3 6 8
10 11 10 2 0 4 -4 4 -10z m699 -162 c1 -32 -1 -58 -3 -58 -2 0 -12 -3 -22 -7
-15 -6 -16 0 -10 63 4 38 10 78 13 89 6 18 7 18 14 -5 4 -14 7 -51 8 -82z
m-90 -81 c-7 -37 -16 -63 -19 -56 -4 6 -13 -12 -20 -40 -6 -28 -16 -54 -21
-57 -15 -9 -10 41 8 77 9 18 19 58 22 89 3 44 6 50 12 30 5 -20 7 -15 8 21 1
25 4 49 9 53 13 14 14 -48 1 -117z m2054 16 c-7 -2 -21 -2 -30 0 -10 3 -4 5
12 5 17 0 24 -2 18 -5z m32 -23 c-11 -5 -31 -9 -45 -9 -20 -1 -22 1 -10 9 8 5
29 9 45 9 26 0 27 -2 10 -9z m-1994 -54 c0 10 3 14 5 7 9 -21 -80 -202 -93
-189 -3 2 -1 11 3 18 5 7 7 23 5 36 -1 13 4 25 13 28 9 3 16 10 16 16 0 5 -5
6 -12 2 -8 -5 -9 -2 -5 10 4 10 10 30 14 44 8 36 25 46 41 25 11 -15 12 -15
13 3z m-140 -177 c-32 -113 -41 -102 -12 14 14 57 27 93 29 81 2 -13 -6 -56
-17 -95z m1259 106 c0 -8 -6 -15 -14 -15 -17 0 -28 14 -19 24 12 12 33 6 33
-9z m153 -45 c7 -27 -16 -42 -73 -48 -37 -3 -57 0 -76 13 -23 15 -25 19 -11
26 8 5 34 10 56 11 22 1 46 5 53 9 23 15 45 10 51 -11z m280 -17 c-3 -21 -10
-47 -15 -58 -6 -15 -7 -11 -3 14 3 18 5 44 5 57 0 13 4 24 9 24 6 0 7 -17 4
-37z m-1393 -29 c0 -8 -4 -12 -10 -9 -5 3 -10 10 -10 16 0 5 5 9 10 9 6 0 10
-7 10 -16z m-70 -45 c0 -22 -22 -25 -39 -5 -10 11 -8 16 6 24 22 13 33 7 33
-19z m1437 -41 c-3 -7 -5 -2 -5 12 0 14 2 19 5 13 2 -7 2 -19 0 -25z m39 -333
c-4 -18 -13 -38 -21 -45 -13 -11 -15 -8 -15 18 0 17 8 47 18 66 14 28 18 31
20 14 2 -11 1 -35 -2 -53z m-251 -592 c-8 -212 -10 -232 -41 -305 -39 -93
-149 -310 -208 -413 -29 -49 -67 -116 -84 -147 -17 -32 -57 -101 -88 -154 -66
-113 -53 -116 -142 41 -30 55 -100 178 -154 273 -159 280 -234 441 -239 512
-1 19 2 63 6 97 l7 61 36 -5 c26 -5 33 -3 28 6 -6 9 -2 9 13 -1 12 -7 21 -16
21 -20 0 -5 9 -8 20 -8 11 0 20 -4 20 -9 0 -5 54 -37 121 -70 109 -55 127 -61
183 -61 72 0 141 29 220 91 64 50 232 213 253 245 8 13 19 24 24 24 5 0 7 -67
4 -157z m-1075 -1798 c14 -19 14 -19 -2 -6 -10 7 -18 18 -18 24 0 6 1 8 3 6 1
-2 9 -13 17 -24z"/>
<path d="M5930 9236 c0 -2 7 -6 15 -10 8 -3 15 -1 15 4 0 6 -7 10 -15 10 -8 0
-15 -2 -15 -4z"/>
<path d="M5940 9064 c42 -49 44 -50 22 -14 -11 19 -27 36 -34 39 -7 2 -2 -9
12 -25z"/>
<path d="M5995 8564 c4 -60 9 -124 10 -142 4 -47 12 -50 24 -7 14 53 -8 237
-31 251 -8 5 -9 -24 -3 -102z"/>
<path d="M4920 7556 c0 -2 8 -10 18 -17 15 -13 16 -12 3 4 -13 16 -21 21 -21
13z"/>
<path d="M5690 7331 c0 -12 2 -21 4 -21 2 0 12 -3 21 -6 13 -5 16 -2 13 17 -4
31 -38 39 -38 10z"/>
<path d="M5810 7334 c0 -9 7 -14 17 -12 25 5 28 28 4 28 -12 0 -21 -6 -21 -16z"/>
<path d="M6029 7135 c-80 -44 -366 -72 -459 -45 -19 6 -38 6 -43 1 -17 -17 19
-26 124 -29 157 -6 386 34 429 74 12 12 12 14 -5 14 -11 -1 -32 -7 -46 -15z"/>
<path d="M4986 7975 c-9 -26 -7 -32 5 -12 6 10 9 21 6 23 -2 3 -7 -2 -11 -11z"/>
<path d="M6375 9478 c11 -6 32 -20 48 -30 15 -11 27 -17 27 -14 0 8 -73 56
-85 56 -5 0 -1 -6 10 -12z"/>
<path d="M9351 9454 c0 -11 3 -14 6 -6 3 7 2 16 -1 19 -3 4 -6 -2 -5 -13z"/>
<path d="M4759 9373 l-24 -28 28 24 c25 23 32 31 24 31 -2 0 -14 -12 -28 -27z"/>
<path d="M9343 9165 c0 -178 1 -191 9 -118 6 52 6 126 0 200 l-9 118 0 -200z"/>
<path d="M9550 9332 c0 -14 11 -21 26 -15 21 8 17 23 -6 23 -11 0 -20 -4 -20
-8z"/>
<path d="M4679 9303 l-24 -28 28 24 c25 23 32 31 24 31 -2 0 -14 -12 -28 -27z"/>
<path d="M4430 8899 c0 -5 5 -7 10 -4 6 3 10 8 10 11 0 2 -4 4 -10 4 -5 0 -10
-5 -10 -11z"/>
<path d="M9342 8860 c0 -14 2 -19 5 -12 2 6 2 18 0 25 -3 6 -5 1 -5 -13z"/>
<path d="M9343 8765 c0 -33 2 -45 4 -27 2 18 2 45 0 60 -2 15 -4 0 -4 -33z"/>
<path d="M6820 8726 c0 -2 7 -7 16 -10 8 -3 12 -2 9 4 -6 10 -25 14 -25 6z"/>
<path d="M918 8513 c4 -21 10 -23 56 -22 28 1 62 5 76 9 21 7 18 8 -20 10 -25
1 -52 1 -60 0 -10 -1 -12 2 -5 9 6 5 30 12 55 14 25 2 11 3 -31 3 -72 -1 -75
-2 -71 -23z"/>
<path d="M9670 8500 c0 -5 5 -10 11 -10 5 0 7 5 4 10 -3 6 -8 10 -11 10 -2 0
-4 -4 -4 -10z"/>
<path d="M7020 8479 c0 -5 5 -7 10 -4 6 3 10 8 10 11 0 2 -4 4 -10 4 -5 0 -10
-5 -10 -11z"/>
<path d="M925 8449 c-5 -7 5 -8 32 -3 51 9 54 14 10 14 -20 0 -39 -5 -42 -11z"/>
<path d="M1125 8394 c-9 -79 -2 -163 16 -196 7 -12 12 -27 11 -32 -4 -12 19
-26 43 -26 31 0 47 57 54 190 l6 115 30 6 c18 4 -8 7 -62 8 l-91 1 -7 -66z"/>
<path d="M7018 8423 c6 -2 18 -2 25 0 6 3 1 5 -13 5 -14 0 -19 -2 -12 -5z"/>
<path d="M1555 8390 c27 -12 43 -12 25 0 -8 5 -22 9 -30 9 -10 0 -8 -3 5 -9z"/>
<path d="M705 8370 c-68 -27 -73 -36 -63 -112 4 -35 11 -103 14 -153 4 -60 9
-83 15 -70 6 16 8 11 10 -20 1 -24 3 -31 6 -17 2 12 9 22 14 22 6 0 7 -9 4
-20 -4 -14 -2 -20 8 -20 18 0 24 27 36 186 15 180 17 224 11 224 -3 -1 -27
-10 -55 -20z"/>
<path d="M1671 8332 c96 -63 111 -70 70 -36 -54 46 -113 84 -129 84 -8 0 19
-22 59 -48z"/>
<path d="M525 8339 c-11 -11 -65 -64 -121 -117 -74 -72 -109 -114 -134 -162
-39 -77 -33 -72 46 39 34 48 93 113 139 153 44 38 83 78 87 89 9 24 8 24 -17
-2z"/>
<path d="M1617 8320 c5 -18 25 -31 47 -29 5 0 13 -5 17 -13 7 -10 9 -10 9 2 0
13 -56 60 -72 60 -3 0 -4 -9 -1 -20z"/>
<path d="M9350 8225 c0 -38 2 -66 5 -64 7 8 9 119 2 126 -4 3 -7 -24 -7 -62z"/>
<path d="M9410 8270 l-35 -19 58 -1 c50 0 58 2 55 18 -5 24 -37 25 -78 2z"/>
<path d="M1707 8253 c-4 -3 -7 -38 -7 -76 0 -65 -1 -69 -17 -56 -17 13 -17 13
-1 -6 9 -11 22 -51 30 -90 16 -87 16 -90 1 -90 -6 0 -15 -3 -19 -7 -4 -5 1 -8
12 -8 37 0 217 -49 231 -63 12 -12 8 -26 -28 -93 -23 -43 -51 -91 -61 -106
-26 -38 -22 -44 7 -11 13 15 25 23 25 16 0 -6 -4 -15 -10 -18 -5 -3 -10 -17
-10 -30 0 -13 -5 -27 -11 -31 -17 -10 -1 -190 22 -243 10 -24 19 -52 19 -62 0
-10 5 -21 10 -24 15 -9 12 -52 -4 -58 -8 -3 -25 -3 -38 0 -16 3 -19 2 -9 -5 9
-7 10 -12 2 -16 -6 -4 -11 -20 -11 -36 0 -16 -5 -32 -12 -36 -7 -5 -8 -3 -3 6
5 9 4 11 -3 6 -7 -4 -12 -16 -12 -26 0 -10 -4 -21 -8 -24 -12 -7 -15 -226 -3
-226 6 0 8 -8 4 -17 -8 -25 70 61 116 127 63 90 96 168 129 300 39 161 47 241
32 367 -11 100 -58 271 -95 343 -29 58 -125 181 -188 243 -57 54 -76 65 -90
50z"/>
<path d="M1230 8034 c0 -17 17 -36 24 -26 3 5 -1 15 -9 22 -8 7 -15 9 -15 4z"/>
<path d="M226 7965 c-9 -26 -7 -32 5 -12 6 10 9 21 6 23 -2 3 -7 -2 -11 -11z"/>
<path d="M196 7895 c-9 -26 -7 -32 5 -12 6 10 9 21 6 23 -2 3 -7 -2 -11 -11z"/>
<path d="M2041 7895 c0 -5 6 -32 13 -60 12 -41 14 -44 15 -20 0 27 -27 104
-28 80z"/>
<path d="M4278 7783 c6 -2 18 -2 25 0 6 3 1 5 -13 5 -14 0 -19 -2 -12 -5z"/>
<path d="M2165 7770 c-3 -6 1 -7 9 -4 18 7 21 14 7 14 -6 0 -13 -4 -16 -10z"/>
<path d="M2302 7729 c-12 -19 -11 -19 8 -9 11 6 20 15 20 20 0 17 -15 11 -28
-11z"/>
<path d="M141 7714 c0 -11 3 -14 6 -6 3 7 2 16 -1 19 -3 4 -6 -2 -5 -13z"/>
<path d="M9353 7695 c0 -22 2 -30 4 -17 2 12 2 30 0 40 -3 9 -5 -1 -4 -23z"/>
<path d="M2102 7660 c0 -14 2 -19 5 -12 2 6 2 18 0 25 -3 6 -5 1 -5 -13z"/>
<path d="M133 7610 c0 -25 2 -35 4 -22 2 12 2 32 0 45 -2 12 -4 2 -4 -23z"/>
<path d="M1705 7510 c3 -5 8 -10 11 -10 2 0 4 5 4 10 0 6 -5 10 -11 10 -5 0
-7 -4 -4 -10z"/>
<path d="M2112 7415 c0 -16 2 -22 5 -12 2 9 2 23 0 30 -3 6 -5 -1 -5 -18z"/>
<path d="M2102 7355 c0 -16 2 -22 5 -12 2 9 2 23 0 30 -3 6 -5 -1 -5 -18z"/>
<path d="M77 7296 c-4 -9 -11 -15 -15 -12 -5 3 -18 -1 -28 -9 -17 -13 -16 -13
15 -5 40 11 44 15 39 31 -3 9 -7 7 -11 -5z"/>
<path d="M2051 7154 c-6 -15 -9 -29 -7 -32 3 -2 10 8 16 23 14 36 7 43 -9 9z"/>
<path d="M260 7007 c0 -9 51 -87 57 -87 5 0 -35 69 -49 85 -4 5 -8 6 -8 2z"/>
<path d="M1020 6985 c0 -5 5 -17 10 -25 5 -8 10 -10 10 -5 0 6 -5 17 -10 25
-5 8 -10 11 -10 5z"/>
<path d="M420 6805 c35 -36 67 -65 69 -65 3 0 -24 29 -59 65 -35 36 -67 65
-69 65 -3 0 24 -29 59 -65z"/>
<path d="M524 6711 c21 -23 26 -26 26 -11 0 5 -10 15 -22 21 -23 12 -23 12 -4
-10z"/>
<path d="M1126 6706 c-3 -12 -6 -47 -6 -78 0 -54 2 -58 27 -64 39 -10 58 7 61
56 5 60 -13 97 -48 102 -22 3 -30 0 -34 -16z"/>
<path d="M5265 6704 c-9 -15 -12 -23 -6 -20 11 7 35 46 28 46 -3 0 -12 -12
-22 -26z"/>
<path d="M593 6646 c-9 -11 -9 -15 0 -19 7 -3 14 3 14 14 2 22 2 22 -14 5z"/>
<path d="M6461 6645 c2 -5 22 -46 44 -90 32 -65 39 -90 39 -135 -1 -75 -128
-583 -211 -840 -36 -113 -80 -254 -98 -315 -18 -60 -78 -243 -134 -404 -55
-162 -98 -297 -96 -300 3 -2 9 0 14 5 9 9 98 244 154 404 33 95 52 125 43 70
-3 -19 -1 -37 5 -41 6 -3 4 -17 -5 -35 -15 -27 -14 -29 7 -41 12 -7 35 -12 51
-13 22 0 26 -3 18 -13 -6 -7 -9 -30 -6 -50 2 -23 -2 -49 -11 -67 -23 -45 -17
-58 11 -26 19 21 28 26 34 17 5 -10 9 -9 13 2 3 9 -1 17 -13 20 -13 3 -16 11
-13 31 3 14 9 23 14 20 5 -3 7 -9 4 -14 -3 -4 2 -10 10 -14 8 -3 17 0 21 6 5
7 2 8 -7 3 -8 -5 -5 1 5 13 24 28 31 21 18 -17 -6 -17 -8 -31 -5 -31 4 0 -1
-6 -11 -13 -9 -7 -16 -19 -14 -27 2 -11 -6 -14 -32 -12 -28 2 -32 0 -22 -10 6
-6 12 -18 12 -25 0 -17 -27 -17 -33 0 -3 6 -6 2 -6 -10 -1 -28 35 -32 43 -5 4
10 20 29 37 41 17 13 35 36 41 52 10 30 40 40 54 18 4 -8 -1 -9 -17 -5 -20 6
-21 5 -6 -4 9 -6 17 -16 17 -23 0 -9 -3 -8 -9 1 -10 16 -27 -1 -33 -33 -2 -13
-12 -21 -28 -23 -31 -4 -68 -67 -44 -76 8 -3 14 -1 14 4 0 17 45 11 62 -9 16
-18 14 -31 -4 -31 -4 0 -8 8 -9 18 0 12 -2 13 -6 3 -3 -8 1 -19 9 -25 10 -8
13 -23 10 -48 -2 -21 -7 -36 -11 -34 -3 2 -6 -13 -6 -34 -1 -21 2 -37 6 -34
24 14 200 618 249 854 40 194 86 370 99 383 8 8 11 -12 11 -71 0 -74 13 -132
30 -132 29 0 89 -438 105 -765 4 -66 10 -153 16 -193 5 -40 16 -213 24 -385 9
-171 18 -319 20 -327 12 -40 -8 496 -30 825 -31 460 -41 571 -65 760 -10 83
-24 204 -30 269 -6 66 -17 170 -25 230 -7 61 -17 161 -20 221 -3 61 -9 126
-12 145 -6 32 -6 33 -15 11 -8 -24 -9 -24 -27 12 -10 19 -40 64 -68 99 -27 35
-67 95 -87 133 -32 59 -106 161 -95 130z m-111 -1309 c0 -3 -4 -8 -10 -11 -5
-3 -10 -1 -10 4 0 6 5 11 10 11 6 0 10 -2 10 -4z m125 -126 c-3 -5 -11 -10
-16 -10 -6 0 -7 5 -4 10 3 6 11 10 16 10 6 0 7 -4 4 -10z m-215 -252 c0 -17 3
-20 9 -9 6 9 15 11 27 6 17 -8 17 -9 -3 -12 -13 -3 -23 -9 -23 -14 0 -5 -9 -1
-20 8 -24 21 -26 43 -5 43 9 0 15 -9 15 -22z m215 12 c3 -5 1 -10 -4 -10 -6 0
-11 5 -11 10 0 6 2 10 4 10 3 0 8 -4 11 -10z m-65 -48 c0 -13 -12 -22 -22 -16
-10 6 -1 24 13 24 5 0 9 -4 9 -8z m-95 -42 c3 -5 1 -10 -4 -10 -6 0 -11 5 -11
10 0 6 2 10 4 10 3 0 8 -4 11 -10z m102 -172 c-3 -7 -5 -2 -5 12 0 14 2 19 5
13 2 -7 2 -19 0 -25z m-30 -25 c-9 -9 -20 -13 -24 -9 -4 4 1 14 11 22 25 18
35 8 13 -13z"/>
<path d="M1345 6629 c-4 -6 -5 -12 -2 -15 2 -3 7 2 10 11 7 17 1 20 -8 4z"/>
<path d="M1610 6605 c-7 -9 -11 -18 -8 -20 3 -3 11 1 18 10 7 9 11 18 8 20 -3
3 -11 -1 -18 -10z"/>
<path d="M1466 6554 c-22 -8 -42 -17 -45 -20 -10 -9 52 8 79 22 33 17 15 16
-34 -2z"/>
<path d="M6787 6063 c-4 -3 -7 -11 -7 -17 0 -6 5 -5 12 2 6 6 9 14 7 17 -3 3
-9 2 -12 -2z"/>
<path d="M4520 5838 c-32 -83 -43 -120 -98 -343 -45 -178 -74 -312 -83 -385
-6 -49 -13 -69 -29 -80 -12 -8 -37 -28 -57 -45 l-35 -29 26 52 c15 30 26 68
26 91 0 22 6 46 13 53 20 19 30 64 31 135 1 33 4 56 7 51 6 -10 25 68 21 85
-1 4 2 7 7 7 5 0 7 9 4 20 -3 11 -1 20 5 20 15 0 32 81 32 150 0 38 4 59 10
55 9 -5 12 8 9 31 0 4 4 10 10 13 6 4 8 22 4 45 l-6 39 -24 -48 c-32 -62 -56
-138 -87 -277 -14 -62 -32 -131 -40 -153 -8 -22 -22 -103 -31 -180 -14 -118
-23 -153 -53 -220 -42 -93 -40 -90 -48 -82 -8 8 26 258 37 272 4 6 13 40 18
75 6 36 17 85 25 110 9 25 21 80 28 122 6 43 15 73 18 67 4 -6 10 12 13 39 3
27 15 88 27 136 11 49 19 93 17 99 -14 44 -146 -455 -182 -689 -21 -138 -30
-195 -60 -374 -61 -366 -143 -1133 -117 -1090 14 23 30 144 47 355 13 158 26
275 39 355 8 47 19 123 26 170 6 47 16 110 21 140 5 30 12 88 15 128 4 39 10
72 13 72 10 0 32 -96 38 -163 5 -55 23 -72 23 -21 0 26 15 33 23 10 3 -8 31
-33 61 -56 31 -22 56 -45 56 -51 0 -6 -21 -30 -47 -53 l-46 -42 -3 -80 c-1
-43 3 -96 9 -117 11 -40 -7 -241 -23 -262 -13 -17 -30 -138 -29 -201 1 -55 2
-53 14 39 20 145 22 145 25 2 1 -71 3 -140 4 -152 4 -37 14 -38 20 -2 28 180
38 233 51 271 8 23 15 61 15 83 0 48 25 158 43 188 10 19 13 12 18 -58 l5 -80
2 78 c2 73 3 78 22 72 25 -8 25 -6 -2 50 -29 60 -44 58 -57 -8 -8 -39 -43 -46
-61 -13 -18 34 14 100 50 103 24 3 24 2 3 -7 -26 -11 -52 -85 -36 -101 7 -7
14 -1 22 22 26 75 66 87 118 37 30 -29 33 -30 33 -11 0 17 5 21 25 18 21 -2
25 2 25 26 0 16 -4 29 -10 29 -5 0 -10 -7 -10 -16 0 -8 -4 -12 -10 -9 -5 3
-10 1 -10 -5 0 -6 -11 -5 -29 5 -19 9 -41 12 -61 8 -27 -5 -31 -3 -28 13 3 16
-3 18 -39 15 -40 -2 -43 -1 -58 35 -15 37 -15 38 15 66 35 32 52 36 43 11 -6
-15 -4 -16 8 -6 15 12 99 11 119 -2 8 -5 9 3 5 29 -7 32 -5 36 21 47 85 33
115 54 147 103 64 99 68 125 37 209 -19 50 -82 127 -122 148 -31 17 -18 -5 15
-26 21 -13 45 -45 70 -95 33 -63 38 -82 34 -122 -7 -84 -95 -188 -159 -188
-42 0 -87 -20 -81 -36 6 -17 -14 -44 -32 -44 -7 0 -19 20 -27 45 l-15 45 51
-4 c39 -4 44 -3 21 3 -16 5 -48 10 -70 11 -22 1 -32 4 -23 7 9 2 16 13 15 23
-1 14 -7 18 -22 14 -13 -3 -30 3 -46 16 -23 20 -23 21 -1 10 15 -7 22 -7 22 0
0 5 -3 10 -7 10 -5 0 -17 13 -28 28 l-20 27 29 -22 c16 -13 33 -23 39 -23 5 0
-2 10 -17 21 -15 12 -32 33 -37 47 -8 20 -6 27 13 41 12 9 32 19 43 22 18 6
19 7 2 14 -12 5 -23 1 -36 -14 -19 -22 -19 -22 -26 -2 -8 26 5 50 54 94 44 40
80 62 82 50 1 -4 1 -33 0 -63 l-1 -55 16 35 c9 19 16 45 15 57 -2 16 6 26 24
35 36 16 45 0 45 -83 0 -53 -4 -70 -21 -88 -12 -12 -19 -25 -16 -27 3 -3 14 7
25 21 22 28 38 111 27 144 -10 34 17 25 56 -16 18 -21 24 -29 11 -19 -27 23
-33 19 -21 -13 6 -16 15 -22 28 -18 14 3 23 -5 35 -30 23 -49 20 -80 -15 -135
-34 -53 -71 -83 -109 -91 -22 -4 -21 -4 6 -6 36 -1 77 31 118 93 48 72 31 148
-59 259 -25 31 -29 45 -30 94 l0 58 -46 3 c-45 3 -46 2 -61 -37 -9 -21 -25
-44 -37 -50 -28 -15 -27 -5 3 72 14 34 28 80 32 102 6 35 75 323 121 505 16
66 34 182 28 188 -1 2 -17 -34 -35 -80z m-143 -250 c-3 -8 -6 -5 -6 6 -1 11 2
17 5 13 3 -3 4 -12 1 -19z m23 -298 c0 -5 -5 -10 -11 -10 -5 0 -7 5 -4 10 3 6
8 10 11 10 2 0 4 -4 4 -10z m100 -180 c9 -16 8 -20 -5 -20 -9 0 -13 -4 -10
-10 3 -5 1 -10 -5 -10 -7 0 -5 -7 5 -16 24 -24 1 -46 -40 -38 -53 10 -155 -49
-206 -119 -24 -32 -29 -50 -29 -94 0 -30 5 -63 10 -73 8 -15 7 -19 -8 -17 -10
0 -19 8 -20 16 -1 9 -4 33 -8 54 -7 39 3 113 13 103 4 -3 19 16 35 44 25 43
38 54 102 85 41 19 84 35 95 35 24 0 25 4 10 31 -7 15 -7 24 2 35 17 20 47 17
59 -6z m-224 -722 c4 -6 2 -14 -4 -16 -7 -2 -12 -11 -12 -20 0 -10 -3 -13 -10
-6 -10 10 -2 54 11 54 4 0 11 -5 15 -12z m91 -130 c-3 -8 -6 -5 -6 6 -1 11 2
17 5 13 3 -3 4 -12 1 -19z m-91 -65 c-3 -16 -10 -62 -16 -103 -6 -41 -14 -93
-19 -115 l-9 -40 -1 34 c-1 31 14 171 25 229 2 12 9 22 15 22 7 0 9 -11 5 -27z"/>
<path d="M7190 5805 c0 -9 50 -276 86 -455 8 -41 22 -115 31 -165 20 -121 37
-138 40 -42 2 80 -8 176 -38 342 -55 305 -64 335 -98 332 -12 -1 -21 -6 -21
-12z"/>
<path d="M10130 5780 c-52 -15 -133 -42 -180 -59 -47 -17 -105 -36 -130 -41
-25 -6 -68 -18 -97 -26 l-51 -16 -7 -105 c-4 -58 -5 -168 -1 -246 4 -78 8
-194 9 -257 2 -102 5 -120 27 -159 34 -60 71 -86 120 -85 22 1 40 -2 40 -7 0
-12 117 -11 160 1 19 5 76 10 127 11 l93 1 0 509 c0 280 -3 509 -7 508 -5 0
-51 -13 -103 -29z m68 -93 c2 -10 -3 -17 -12 -17 -18 0 -29 16 -21 31 9 14 29
6 33 -14z m-343 -87 c-5 -8 -11 -8 -17 -2 -6 6 -7 16 -3 22 5 8 11 8 17 2 6
-6 7 -16 3 -22z m110 -290 c3 -5 1 -10 -4 -10 -6 0 -11 5 -11 10 0 6 2 10 4
10 3 0 8 -4 11 -10z m-65 -232 c0 -16 -3 -19 -11 -11 -6 6 -8 16 -5 22 11 17
16 13 16 -11z"/>
<path d="M7316 5698 c4 -24 11 -51 15 -60 5 -9 9 -40 9 -68 0 -37 6 -59 20
-77 21 -27 26 -58 12 -67 -5 -3 0 -38 10 -78 10 -40 30 -131 43 -203 13 -71
28 -146 31 -165 l7 -35 -44 46 c-24 26 -57 55 -74 65 l-30 18 35 -39 c23 -27
27 -33 10 -20 -51 40 -89 78 -84 86 2 4 -5 14 -17 23 -31 21 -69 2 -69 -35 0
-23 -11 -35 -59 -68 -65 -45 -107 -90 -128 -138 -17 -42 -17 -127 1 -162 32
-61 128 -128 209 -145 24 -6 27 -11 27 -49 0 -24 -5 -48 -12 -55 -9 -9 -9 -12
0 -12 7 0 12 5 12 10 0 6 26 10 58 10 l59 0 -1 33 c0 46 5 58 39 82 17 12 51
43 78 70 56 57 57 60 27 286 -81 610 -105 723 -160 762 -11 7 -17 17 -13 20 3
4 1 7 -5 7 -9 0 -10 -13 -6 -42z m-62 -627 c25 -53 21 -63 -25 -54 -20 4 -37
-8 -91 -64 -65 -68 -80 -96 -94 -184 -5 -32 -2 -42 32 -78 44 -50 63 -61 129
-77 l50 -12 -40 -1 c-79 -2 -193 90 -210 169 -4 17 1 54 10 87 20 70 86 139
155 164 43 15 45 18 48 57 2 23 5 42 8 42 2 0 15 -22 28 -49z m149 -103 c39
-28 57 -69 62 -146 l5 -67 -15 68 c-16 78 -47 125 -106 163 -21 13 -39 27 -39
29 0 7 57 -22 93 -47z m-134 -5 c6 -21 11 -50 11 -64 0 -32 9 -41 25 -26 28
26 56 47 63 47 29 0 77 -113 70 -165 -4 -29 -4 -28 -12 10 -8 43 -27 98 -32
93 -1 -2 4 -30 12 -63 l14 -60 -30 -25 c-16 -14 -47 -33 -70 -42 -40 -16 -40
-16 -40 6 0 12 -7 31 -16 42 -15 18 -15 17 -8 -11 4 -16 7 -38 8 -47 0 -21 36
-24 68 -7 11 6 22 8 25 5 3 -2 -12 -12 -33 -21 -69 -29 -195 12 -242 78 -12
18 -18 33 -12 35 7 3 7 8 0 18 -13 15 -4 38 12 28 5 -4 7 -19 4 -35 -4 -22 0
-32 21 -49 14 -11 37 -23 50 -26 12 -4 23 -10 23 -14 0 -4 14 -10 30 -12 24
-4 30 -1 27 11 -2 9 -9 15 -16 13 -7 -1 -29 6 -49 17 -20 11 -46 22 -57 26
-15 5 -16 8 -6 14 7 5 11 13 7 19 -7 11 21 25 35 16 5 -3 9 -16 9 -30 0 -28
17 -33 23 -6 13 52 -11 121 -36 105 -6 -4 -8 0 -4 10 4 11 1 17 -8 17 -27 0
-17 -40 13 -51 21 -8 24 -12 12 -19 -8 -4 -27 -6 -42 -3 -39 7 -36 35 9 107
30 50 38 56 44 40 4 -13 1 -22 -12 -28 -21 -10 -26 -26 -8 -26 6 0 24 -9 39
-20 38 -27 50 -8 21 31 -12 16 -17 29 -11 29 5 0 10 13 10 29 0 27 7 34 42 40
4 0 12 -16 17 -36z m141 -266 c0 -2 -10 -12 -22 -23 l-23 -19 19 23 c18 21 26
27 26 19z m0 -51 c0 -2 -7 -7 -16 -10 -8 -3 -12 -2 -9 4 6 10 25 14 25 6z
m-124 -102 c-10 -37 -21 -29 -19 13 2 51 2 51 14 30 6 -10 8 -29 5 -43z"/>
<path d="M7222 4933 c-10 -4 -9 -9 4 -24 23 -25 36 -24 32 3 -3 23 -15 30 -36
21z"/>
<path d="M7329 4870 l-24 -21 24 3 c19 2 26 -3 34 -27 6 -16 13 -32 18 -35 4
-3 9 -16 12 -30 3 -17 3 -15 2 5 -2 17 -8 47 -13 68 -6 23 -6 37 0 37 5 0 6 5
3 10 -10 16 -31 12 -56 -10z"/>
<path d="M7240 4850 c0 -5 4 -10 9 -10 6 0 13 5 16 10 3 6 -1 10 -9 10 -9 0
-16 -4 -16 -10z"/>
<path d="M7205 4820 c-9 -15 35 -72 50 -66 17 6 31 -11 40 -46 7 -26 7 -26 38
-10 32 17 47 31 47 44 0 11 -33 -3 -46 -19 -10 -11 -13 -11 -24 2 -15 18 -8
28 23 32 31 5 44 20 29 35 -8 8 -18 9 -34 1 -67 -31 -76 -32 -92 -14 -9 10
-14 25 -10 35 7 17 -11 23 -21 6z"/>
<path d="M7260 4810 c0 -19 3 -21 12 -12 9 9 9 15 0 24 -9 9 -12 7 -12 -12z"/>
<path d="M7305 4820 c3 -5 8 -10 11 -10 2 0 4 5 4 10 0 6 -5 10 -11 10 -5 0
-7 -4 -4 -10z"/>
<path d="M7202 4724 c1 -9 9 -19 16 -22 9 -3 13 2 10 14 -1 9 -9 19 -16 22 -9
3 -13 -2 -10 -14z"/>
<path d="M7420 5674 c0 -10 5 -35 10 -54 32 -110 86 -450 120 -755 11 -99 26
-216 34 -260 8 -44 17 -111 21 -150 6 -72 25 -236 50 -435 8 -63 20 -185 25
-270 31 -482 41 -618 45 -650 3 -19 10 -93 15 -165 6 -71 18 -168 27 -215 9
-47 18 -143 20 -215 2 -71 9 -164 17 -205 8 -41 20 -111 27 -155 6 -44 20 -97
30 -117 27 -52 24 -59 -18 -55 l-38 2 -22 165 c-12 91 -33 239 -47 330 -14 91
-33 218 -43 283 -15 102 -19 116 -30 101 -7 -10 -13 -36 -13 -58 0 -37 -1 -39
-15 -20 -18 24 -18 27 4 -107 11 -63 25 -159 31 -214 7 -55 23 -156 36 -225
13 -69 26 -147 30 -175 12 -89 14 -91 90 -99 55 -6 69 -4 76 8 5 8 33 26 63
40 48 22 158 96 142 96 -3 0 -48 -24 -99 -54 -50 -30 -96 -52 -100 -50 -12 8
-10 46 5 77 13 28 22 33 32 17 8 -13 55 18 64 43 4 11 27 27 52 37 26 10 43
22 41 30 -11 46 26 77 57 48 11 -11 12 -10 5 2 -11 19 -13 50 -3 44 5 -3 19 1
31 8 23 13 29 15 60 17 9 0 19 9 21 19 4 14 5 13 6 -4 1 -16 -9 -23 -49 -34
-61 -17 -66 -30 -7 -23 58 8 77 19 77 48 0 13 5 27 10 30 15 9 12 25 -5 25
-15 0 -31 42 -21 58 3 4 38 21 78 37 40 15 128 52 196 82 68 29 125 53 127 53
3 0 119 56 259 125 141 69 259 125 264 125 5 0 26 11 46 25 21 14 42 23 47 20
17 -11 9 32 -16 79 -14 26 -25 50 -25 54 0 3 22 -17 49 -45 27 -28 67 -63 88
-76 52 -33 235 -177 250 -196 18 -25 -4 -40 -78 -52 -105 -16 -100 -12 -94
-82 8 -89 29 -131 76 -152 21 -10 45 -27 52 -39 19 -29 60 -185 53 -202 -4
-10 -2 -12 6 -8 8 5 9 2 5 -9 -4 -10 -1 -17 5 -17 6 0 8 -3 5 -6 -3 -4 5 -16
19 -26 14 -11 34 -42 46 -68 15 -34 30 -52 54 -64 32 -15 46 -36 24 -36 -20 0
-10 -28 16 -45 14 -9 67 -27 116 -39 75 -18 93 -27 106 -49 13 -21 24 -27 52
-27 20 0 41 -5 47 -11 6 -6 25 -8 47 -4 l36 7 0 264 0 264 -24 0 c-28 0 -74
44 -185 175 -22 26 -81 123 -81 134 0 4 -16 22 -35 40 -19 17 -35 27 -35 21 0
-5 -6 -10 -12 -10 -7 0 -23 -16 -36 -35 -25 -39 -40 -43 -63 -17 -9 9 -67 62
-130 117 -62 55 -126 112 -142 128 -16 15 -32 27 -37 27 -18 0 -129 92 -153
127 -14 21 -42 56 -62 77 -40 44 -59 76 -69 119 -4 19 -3 26 4 22 14 -9 13 1
-6 38 -22 43 -36 50 -48 24 -6 -11 -23 -24 -38 -28 -24 -6 -30 -3 -48 26 -23
37 -25 56 -8 73 7 7 9 12 4 12 -13 0 -36 -28 -36 -45 0 -9 -4 -14 -9 -11 -5 4
-12 0 -14 -6 -3 -7 -6 -3 -6 10 -1 13 3 20 9 17 6 -3 10 1 10 10 0 9 7 27 16
40 l16 25 -38 -16 c-22 -9 -43 -19 -49 -23 -5 -4 -32 -16 -60 -25 -63 -23
-169 -76 -260 -131 -73 -44 -277 -137 -292 -133 -4 1 -17 -3 -28 -8 -11 -6
-33 -14 -50 -18 l-30 -6 30 16 c17 9 38 25 48 35 10 10 30 22 45 26 14 3 57
26 93 50 37 23 72 43 78 43 5 0 16 6 23 14 17 17 113 66 129 66 6 0 38 16 70
35 68 42 138 64 193 62 25 -1 41 3 44 12 4 11 -7 13 -54 8 -33 -3 -70 -8 -84
-12 -28 -8 67 60 98 69 11 4 28 16 38 28 15 17 7 15 -41 -12 -33 -18 -64 -36
-70 -40 -5 -4 -48 -27 -95 -51 -47 -23 -99 -53 -115 -66 -28 -20 -87 -49 -350
-172 -49 -23 -109 -51 -132 -62 -23 -11 -50 -30 -60 -42 -23 -28 -60 -52 -97
-61 -26 -6 -28 -10 -22 -41 6 -31 -3 -49 -26 -50 -3 0 -10 -4 -15 -9 -5 -5 -3
-6 5 -2 14 8 17 -10 2 -19 -9 -6 -15 8 -11 29 1 4 -6 14 -15 21 -11 8 -15 20
-11 33 3 12 1 25 -4 28 -5 3 -9 12 -9 20 0 12 7 14 30 9 17 -4 30 -4 30 -1 0
12 -35 46 -47 46 -16 0 -17 12 0 29 10 11 7 12 -15 7 -16 -3 -28 -5 -28 -3 0
12 50 68 51 56 0 -8 5 1 10 19 9 29 12 31 31 21 19 -10 20 -9 15 12 -5 19 2
32 30 61 37 38 59 49 50 25 -5 -14 10 -124 20 -140 7 -11 23 12 23 33 0 13 -1
13 -10 0 -7 -11 -9 -2 -6 30 3 35 2 38 -4 15 -7 -30 -7 -30 -9 8 0 20 4 37 9
37 6 0 10 11 10 25 0 24 70 105 91 105 6 0 8 3 6 8 -3 4 12 20 34 36 35 27 49
46 33 46 -3 0 -44 -29 -89 -65 -46 -36 -87 -65 -92 -65 -12 0 -103 -87 -103
-98 0 -5 -7 -15 -15 -22 -12 -10 -15 -7 -21 14 -3 14 -10 23 -15 21 -4 -3 -6
-12 -2 -20 8 -23 -6 -65 -22 -65 -8 0 -19 10 -26 21 -10 19 0 32 110 138 66
64 135 129 153 145 18 16 26 25 18 21 -8 -5 12 17 45 48 33 31 54 56 48 57 -7
0 -13 -4 -13 -8 0 -4 -15 -16 -32 -26 -18 -11 -52 -34 -75 -53 -23 -18 -46
-33 -52 -33 -6 0 -11 -4 -11 -10 0 -5 5 -10 11 -10 5 0 7 -5 3 -11 -5 -8 -8
-8 -14 0 -3 7 -14 9 -23 5 -47 -18 9 49 118 138 78 65 287 194 427 265 75 38
147 83 133 83 -18 0 -231 -114 -345 -185 -119 -73 -373 -258 -399 -289 -7 -8
-19 -12 -27 -9 -8 3 -14 -1 -14 -10 0 -20 -40 -68 -51 -62 -5 4 -9 2 -9 -3 0
-18 -110 -144 -114 -130 -6 18 -23 167 -36 313 -6 66 -17 179 -25 250 -57 500
-75 666 -85 780 -28 328 -103 820 -145 955 -28 87 -45 120 -45 84z m580 -2224
c0 -6 -8 -14 -17 -17 -10 -4 -24 -15 -31 -25 -7 -10 -18 -18 -24 -18 -5 0 0
11 13 25 13 13 30 25 37 25 6 0 12 5 12 10 0 6 2 10 5 10 3 0 5 -5 5 -10z
m715 -79 c-7 -13 -67 -42 -73 -37 -2 3 13 14 35 25 44 24 46 24 38 12z m-835
-30 c0 -12 -31 -43 -37 -37 -6 6 20 46 29 46 5 0 8 -4 8 -9z m-20 -140 c0 -24
-4 -29 -20 -28 -25 2 -27 32 -2 46 9 6 18 11 20 11 1 0 2 -13 2 -29z m1146 3
c8 -30 -10 -75 -28 -72 -7 2 -18 -15 -24 -37 -21 -67 -52 -210 -48 -214 2 -3
14 19 26 47 12 29 28 52 36 52 10 0 12 9 7 38 -7 43 8 99 20 70 3 -9 2 -25 -4
-37 -14 -25 -14 -27 5 -46 15 -14 15 -18 0 -49 -9 -19 -22 -37 -29 -40 -6 -3
2 -4 18 0 20 3 27 2 20 -4 -5 -6 -19 -12 -30 -14 -11 -1 -29 -11 -39 -21 -12
-10 -28 -15 -39 -11 -11 4 -17 2 -14 -3 4 -6 -5 -15 -18 -21 -14 -7 -25 -15
-25 -20 0 -4 -8 -8 -17 -9 -10 -1 -27 -4 -38 -6 -11 -3 -23 -6 -27 -6 -4 -1
-13 -7 -20 -14 -11 -12 -16 -12 -26 0 -7 7 -9 13 -4 13 5 0 14 11 20 24 10 23
9 23 -34 22 -24 0 -44 -4 -44 -9 0 -4 -3 -6 -7 -4 -5 3 -8 -5 -8 -18 0 -13 5
-23 10 -22 6 1 9 -4 7 -11 -2 -9 4 -11 18 -7 12 4 20 2 20 -5 0 -26 35 -18
132 30 56 29 160 74 230 100 135 52 169 68 179 82 8 12 59 -30 59 -48 0 -9
-25 -26 -57 -40 -32 -14 -116 -54 -188 -89 -195 -95 -285 -135 -304 -135 -10
0 -26 -9 -36 -20 -10 -11 -22 -20 -27 -20 -4 0 -51 -18 -103 -41 -52 -22 -104
-42 -114 -44 -11 -2 -33 -11 -50 -19 -16 -9 -39 -16 -50 -16 -11 0 -23 -5 -26
-10 -10 -16 -63 -41 -69 -32 -3 5 1 19 8 33 7 13 12 29 12 34 -1 6 73 46 163
91 128 63 159 82 141 87 -12 3 -19 3 -16 0 3 -4 -15 -18 -41 -31 -65 -33 -165
-73 -158 -62 3 4 -1 11 -7 13 -10 4 -10 8 1 15 7 5 11 14 7 20 -3 6 6 20 21
33 25 20 26 21 6 16 -20 -4 -22 -2 -19 32 2 20 8 48 14 62 6 15 9 29 6 31 -2
3 11 3 29 1 26 -3 28 -2 12 6 -11 5 -37 12 -57 16 -33 5 -41 12 -61 55 -13 28
-23 50 -23 50 1 0 27 -9 58 -20 66 -23 114 -18 140 14 15 17 20 18 27 7 5 -7
14 -10 20 -7 6 4 11 2 11 -4 0 -6 4 -8 10 -5 6 4 7 -6 3 -26 -4 -24 -3 -30 6
-25 18 11 30 50 19 57 -5 3 -3 13 6 22 9 8 16 21 16 27 0 6 5 8 11 5 7 -5 8 5
4 32 -4 25 -3 33 3 25 7 -11 10 -10 14 5 3 10 20 26 38 37 31 18 32 18 26 0
-3 -11 -8 -34 -10 -52 -3 -26 -1 -30 10 -21 7 6 12 16 11 22 -1 6 6 13 17 15
11 2 16 0 12 -6 -3 -6 -2 -14 4 -17 6 -4 10 -3 9 2 -1 4 -1 16 0 26 1 21 21
23 21 2 0 -19 10 -19 37 0 16 12 23 12 26 2 4 -9 8 -8 16 3 8 12 11 7 11 -20
0 -20 -4 -40 -9 -45 -5 -6 -11 -30 -12 -54 -4 -57 17 -68 26 -14 20 132 75
273 105 273 5 0 13 -12 16 -26z m-106 -90 c0 -2 -7 -4 -15 -4 -8 0 -15 4 -15
10 0 5 7 7 15 4 8 -4 15 -8 15 -10z m199 -13 c19 -12 1 -20 -32 -14 -21 4 -25
8 -15 14 17 11 29 11 47 0z m-986 -63 c-15 -16 -41 -36 -58 -44 -23 -12 -18
-4 23 33 29 26 53 55 53 63 1 10 3 8 6 -3 3 -12 -6 -31 -24 -49z m959 22 c24
0 29 -3 24 -16 -4 -9 -2 -22 4 -29 6 -8 5 -17 -4 -30 -14 -20 -36 -13 -36 11
0 9 -7 22 -15 30 -8 9 -15 25 -14 37 0 12 3 16 6 10 2 -7 18 -13 35 -13z
m-482 -74 c0 -2 -11 -6 -25 -8 -14 -3 -25 -1 -25 3 0 5 11 9 25 9 14 0 25 -2
25 -4z m-410 -90 c0 -2 -7 -7 -16 -10 -8 -3 -12 -2 -9 4 6 10 25 14 25 6z
m-134 -83 c-7 -7 -26 7 -26 19 0 6 6 6 15 -2 9 -7 13 -15 11 -17z m139 17 c3
-5 1 -10 -4 -10 -6 0 -11 5 -11 10 0 6 2 10 4 10 3 0 8 -4 11 -10z m488 -15
c4 -8 2 -17 -3 -20 -6 -4 -10 -4 -10 -1 0 2 -3 11 -6 20 -3 9 -2 16 4 16 5 0
12 -7 15 -15z"/>
<path d="M8785 3049 c-4 -6 -5 -12 -2 -15 2 -3 7 2 10 11 7 17 1 20 -8 4z"/>
<path d="M8728 3023 c6 -2 18 -2 25 0 6 3 1 5 -13 5 -14 0 -19 -2 -12 -5z"/>
<path d="M8685 2989 c-4 -5 -1 -9 4 -9 6 0 11 -4 11 -9 0 -5 -10 -7 -22 -3
-17 4 -20 2 -15 -11 4 -10 2 -17 -3 -17 -17 0 -11 -27 7 -34 18 -7 33 9 33 36
0 25 18 32 43 15 12 -8 26 -14 31 -15 5 0 13 -6 18 -14 8 -10 9 -10 6 2 -5 19
-106 72 -113 59z"/>
<path d="M8776 2987 c3 -10 9 -15 12 -12 3 3 0 11 -7 18 -10 9 -11 8 -5 -6z"/>
<path d="M8640 2891 c0 -6 0 -14 0 -18 0 -5 12 -11 26 -15 30 -8 28 8 -4 30
-14 9 -22 10 -22 3z"/>
<path d="M8680 2749 c0 -5 -4 -7 -10 -4 -5 3 -10 2 -10 -4 0 -5 -9 -13 -21
-16 -11 -4 -19 -9 -16 -11 8 -8 78 27 72 36 -8 13 -15 13 -15 -1z"/>
<path d="M891 5288 c-12 -38 -26 -146 -18 -138 7 7 38 162 33 167 -2 2 -9 -11
-15 -29z"/>
<path d="M990 5160 c0 -5 5 -10 10 -10 6 0 10 5 10 10 0 6 -4 10 -10 10 -5 0
-10 -4 -10 -10z"/>
<path d="M1042 5140 c0 -14 2 -19 5 -12 2 6 2 18 0 25 -3 6 -5 1 -5 -13z"/>
<path d="M1030 5090 c0 -11 4 -20 9 -20 5 0 7 9 4 20 -3 11 -7 20 -9 20 -2 0
-4 -9 -4 -20z"/>
<path d="M1022 5015 c0 -16 2 -22 5 -12 2 9 2 23 0 30 -3 6 -5 -1 -5 -18z"/>
<path d="M790 4990 c8 -5 20 -10 25 -10 6 0 3 5 -5 10 -8 5 -19 10 -25 10 -5
0 -3 -5 5 -10z"/>
<path d="M985 4920 c11 -5 27 -9 35 -9 9 0 8 4 -5 9 -11 5 -27 9 -35 9 -9 0
-8 -4 5 -9z"/>
<path d="M4330 4911 c0 -5 7 -11 15 -15 8 -3 15 -1 15 3 0 5 -7 11 -15 15 -8
3 -15 1 -15 -3z"/>
<path d="M6238 4893 c7 -3 16 -2 19 1 4 3 -2 6 -13 5 -11 0 -14 -3 -6 -6z"/>
<path d="M4330 4875 c7 -9 15 -13 17 -11 7 7 -7 26 -19 26 -6 0 -6 -6 2 -15z"/>
<path d="M4562 4855 c-14 -31 -15 -46 -2 -25 8 12 10 10 11 -10 1 -24 1 -24 9
4 13 41 -2 66 -18 31z"/>
<path d="M5532 4840 c0 -14 2 -19 5 -12 2 6 2 18 0 25 -3 6 -5 1 -5 -13z"/>
<path d="M4383 4842 c-9 -6 -7 -11 6 -19 20 -13 47 -1 37 16 -8 13 -26 14 -43
3z"/>
<path d="M4339 4823 c10 -21 49 -49 55 -41 2 2 -13 16 -32 33 -30 25 -33 26
-23 8z"/>
<path d="M4290 4821 c0 -6 5 -13 10 -16 6 -3 10 1 10 9 0 9 -4 16 -10 16 -5 0
-10 -4 -10 -9z"/>
<path d="M8295 4673 c-21 -82 -44 -159 -50 -173 -10 -21 -88 -311 -100 -373
-2 -9 -6 -21 -10 -26 -3 -5 -18 -54 -34 -108 -16 -54 -45 -141 -65 -193 -20
-52 -36 -99 -35 -105 0 -5 22 46 48 115 55 141 137 396 175 545 14 55 39 145
56 200 31 100 65 254 57 261 -2 2 -21 -62 -42 -143z"/>
<path d="M4270 4788 c0 -23 28 -42 61 -43 33 -1 36 6 12 26 -13 12 -17 12 -21
1 -3 -10 -11 -7 -28 9 -19 18 -24 19 -24 7z"/>
<path d="M3390 4758 c0 -47 40 -200 70 -263 5 -11 30 -85 56 -165 25 -80 51
-149 57 -155 7 -7 8 -5 4 7 -18 53 -100 319 -126 413 -17 61 -38 128 -46 150
-12 35 -14 37 -15 13z"/>
<path d="M4510 4749 c-19 -10 -43 -16 -52 -13 -23 7 -23 -13 0 -24 12 -7 27
-3 55 14 20 14 37 29 37 34 0 6 -1 9 -2 9 -2 -1 -19 -10 -38 -20z"/>
<path d="M4375 4749 c-4 -6 -5 -12 -2 -15 2 -3 7 2 10 11 7 17 1 20 -8 4z"/>
<path d="M4393 4711 c-10 -15 -9 -22 1 -30 7 -6 16 -8 19 -4 4 3 14 0 23 -8
16 -13 16 -12 5 9 -6 12 -16 22 -21 22 -5 0 -10 7 -12 15 -2 13 -5 12 -15 -4z"/>
<path d="M4335 4700 c3 -5 10 -10 16 -10 5 0 9 5 9 10 0 6 -7 10 -16 10 -8 0
-12 -4 -9 -10z"/>
<path d="M7500 4675 c0 -8 0 -18 -1 -22 0 -4 4 -9 9 -11 5 -1 10 9 10 23 0 14
-4 25 -9 25 -5 0 -9 -7 -9 -15z"/>
<path d="M4350 4656 c0 -2 7 -6 15 -10 8 -3 15 -1 15 4 0 6 -7 10 -15 10 -8 0
-15 -2 -15 -4z"/>
<path d="M7522 4600 c0 -14 2 -19 5 -12 2 6 2 18 0 25 -3 6 -5 1 -5 -13z"/>
<path d="M7531 4534 c0 -11 3 -14 6 -6 3 7 2 16 -1 19 -3 4 -6 -2 -5 -13z"/>
<path d="M7431 4524 c0 -11 3 -14 6 -6 3 7 2 16 -1 19 -3 4 -6 -2 -5 -13z"/>
<path d="M4281 4474 c-7 -8 -11 -17 -9 -20 3 -2 13 5 23 16 10 11 14 20 9 20
-5 -1 -15 -8 -23 -16z"/>
<path d="M7391 4467 c9 -7 21 -22 27 -33 13 -24 -4 -46 -44 -58 -18 -6 -21 -3
-19 19 2 14 -1 25 -6 25 -5 0 -9 -11 -9 -24 0 -14 -4 -28 -10 -31 -5 -3 -10
-2 -10 2 0 5 -7 18 -16 29 -15 18 -15 18 -9 -5 7 -22 5 -23 -27 -16 -18 4 -37
11 -42 16 -6 5 -14 9 -19 9 -5 0 8 -16 29 -35 23 -22 41 -32 47 -26 16 16 46
0 57 -33 8 -23 13 -28 19 -17 5 8 8 23 6 33 -4 21 17 24 34 4 13 -16 6 -43
-22 -73 -24 -27 -44 -20 -52 18 -7 31 -15 35 -33 17 -8 -8 -8 -17 0 -31 8 -16
7 -23 -6 -33 -23 -16 0 -25 33 -12 31 11 33 8 37 -49 7 -86 34 -247 49 -293
l14 -45 -4 55 c-3 30 -7 98 -10 150 -3 52 -11 115 -17 139 -10 39 -9 46 7 57
31 23 34 20 48 -69 2 -9 9 -23 16 -30 10 -10 11 -3 6 33 -3 25 -7 74 -8 109
-2 49 -7 66 -22 78 -19 13 -19 15 -2 27 20 15 24 81 5 92 -7 4 -24 9 -38 10
-21 2 -23 1 -9 -9z"/>
<path d="M4310 4452 c0 -7 -7 -12 -15 -12 -8 0 -15 -4 -15 -10 0 -5 4 -10 9
-10 13 0 35 29 27 37 -3 3 -6 1 -6 -5z"/>
<path d="M4340 4434 c0 -8 5 -12 10 -9 6 4 8 11 5 16 -9 14 -15 11 -15 -7z"/>
<path d="M7171 4426 c-19 -22 -16 -92 5 -123 16 -25 19 -26 22 -9 2 10 0 21
-5 25 -17 11 -22 51 -11 82 12 34 6 46 -11 25z"/>
<path d="M4136 4419 c-6 -20 -16 -162 -10 -157 6 7 25 161 19 166 -2 3 -7 -1
-9 -9z"/>
<path d="M4450 4420 c0 -5 -9 -10 -20 -10 -11 0 -20 -4 -20 -10 0 -5 11 -10
25 -10 18 0 25 5 25 20 0 11 -2 20 -5 20 -3 0 -5 -4 -5 -10z"/>
<path d="M6340 4380 c-9 -6 -10 -10 -3 -10 6 0 15 5 18 10 8 12 4 12 -15 0z"/>
<path d="M7200 4339 c0 -5 5 -7 10 -4 6 3 10 8 10 11 0 2 -4 4 -10 4 -5 0 -10
-5 -10 -11z"/>
<path d="M6280 4324 c0 -8 5 -12 10 -9 6 3 10 10 10 16 0 5 -4 9 -10 9 -5 0
-10 -7 -10 -16z"/>
<path d="M6305 4289 c-4 -23 -14 -57 -21 -75 -13 -30 -4 -49 10 -25 14 23 35
126 27 134 -5 5 -12 -9 -16 -34z"/>
<path d="M4467 4254 c-10 -13 -13 -24 -8 -24 10 0 36 39 29 45 -2 2 -11 -8
-21 -21z"/>
<path d="M7248 4256 c-10 -7 -18 -18 -18 -25 0 -20 16 -12 28 14 13 29 13 29
-10 11z"/>
<path d="M9658 4089 c2 -130 0 -184 -9 -189 -6 -4 -113 -11 -238 -14 -409 -12
-496 -19 -463 -40 5 -3 8 -14 6 -24 -3 -9 10 -46 28 -82 l33 -65 315 0 315 0
6 -75 c4 -41 7 -132 8 -202 0 -70 6 -138 12 -152 12 -25 85 -54 182 -72 21 -3
41 -12 43 -18 7 -18 -33 -185 -51 -212 -16 -25 -16 -26 30 -75 40 -42 46 -55
40 -77 -18 -74 -18 -79 12 -109 21 -22 43 -32 79 -38 27 -4 69 -14 93 -22 24
-8 65 -17 92 -19 l49 -4 0 738 0 738 -73 42 c-40 23 -93 48 -117 56 -91 29
-306 86 -350 92 l-45 6 3 -183z m540 -72 c2 -10 -3 -17 -11 -17 -16 0 -30 24
-19 34 10 10 27 1 30 -17z"/>
<path d="M4107 4213 c-4 -3 -7 -18 -6 -32 1 -26 1 -25 10 3 9 31 7 41 -4 29z"/>
<path d="M4412 4110 c0 -19 2 -27 5 -17 2 9 2 25 0 35 -3 9 -5 1 -5 -18z"/>
<path d="M6207 4083 c-28 -56 -43 -113 -29 -113 9 0 72 137 72 154 0 20 -22
-1 -43 -41z"/>
<path d="M3590 4104 c0 -10 5 -26 10 -34 8 -11 9 -7 4 15 -8 37 -14 45 -14 19z"/>
<path d="M7293 4022 c0 -29 4 -55 9 -58 10 -6 9 40 -2 81 -7 25 -8 21 -7 -23z"/>
<path d="M3350 4015 c0 -5 5 -17 10 -25 5 -8 10 -10 10 -5 0 6 -5 17 -10 25
-5 8 -10 11 -10 5z"/>
<path d="M4733 3960 c0 -36 2 -50 4 -32 2 17 2 47 0 65 -2 17 -4 3 -4 -33z"/>
<path d="M2878 3916 c-16 -12 -16 -14 5 -33 12 -11 38 -29 57 -39 19 -10 45
-27 57 -37 12 -11 27 -16 34 -12 7 5 10 4 5 -3 -3 -6 3 -16 15 -23 21 -11 86
-60 166 -124 20 -17 34 -22 38 -15 4 7 -2 14 -14 17 -12 3 -21 8 -21 12 0 8
-86 71 -98 71 -12 1 -65 51 -59 56 3 3 -19 30 -49 60 -30 31 -54 60 -54 65 0
5 -3 9 -7 10 -5 0 -19 2 -33 5 -14 2 -33 -3 -42 -10z"/>
<path d="M8730 3920 c-41 -13 -106 -48 -120 -64 -7 -9 -19 -16 -27 -16 -7 0
-17 -8 -20 -17 -4 -10 -11 -22 -17 -26 -21 -16 39 5 109 38 84 40 124 70 110
83 -5 5 -21 6 -35 2z"/>
<path d="M4390 3871 c0 -16 5 -33 10 -36 6 -4 10 6 10 24 0 16 -4 33 -10 36
-6 4 -10 -6 -10 -24z"/>
<path d="M2638 3883 c-10 -2 -18 -11 -18 -19 0 -12 3 -12 20 -2 11 7 20 16 20
20 0 5 -1 7 -2 7 -2 -1 -11 -3 -20 -6z"/>
<path d="M4340 3884 c0 -5 -9 -69 -20 -143 -20 -135 -20 -168 0 -116 11 29 32
256 25 264 -3 2 -5 0 -5 -5z"/>
<path d="M2870 3816 c14 -15 34 -33 45 -39 18 -9 19 -9 6 7 -8 9 -28 27 -45
38 l-31 22 25 -28z"/>
<path d="M3687 3820 c3 -14 14 -43 24 -65 11 -22 16 -29 13 -15 -3 14 -15 43
-25 65 -10 22 -16 29 -12 15z"/>
<path d="M8705 3792 c-33 -19 -76 -41 -95 -48 l-34 -12 -3 -103 -2 -104 22 89
c21 86 24 91 69 123 l47 34 -6 -38 c-3 -21 -19 -78 -34 -128 -16 -49 -29 -103
-28 -120 1 -32 13 2 60 175 12 47 27 91 32 98 6 8 5 12 -4 12 -8 0 -1 11 15
25 45 38 28 37 -39 -3z"/>
<path d="M8504 3780 c-12 -5 -25 -14 -29 -20 -4 -7 7 -4 24 4 17 9 31 19 31
21 0 6 1 6 -26 -5z"/>
<path d="M4721 3724 c0 -11 3 -14 6 -6 3 7 2 16 -1 19 -3 4 -6 -2 -5 -13z"/>
<path d="M8420 3730 c-9 -6 -10 -10 -3 -10 6 0 15 5 18 10 8 12 4 12 -15 0z"/>
<path d="M8360 3716 c0 -14 -28 -31 -45 -27 -5 2 -7 -1 -2 -5 4 -4 -5 -20 -20
-36 -39 -41 -16 -34 49 16 43 32 54 46 46 54 -16 16 -28 15 -28 -2z"/>
<path d="M7986 3663 c-6 -14 -5 -15 5 -6 7 7 10 15 7 18 -3 3 -9 -2 -12 -12z"/>
<path d="M8404 3608 l-19 -23 23 19 c12 11 22 21 22 23 0 8 -8 2 -26 -19z"/>
<path d="M8239 3593 c-13 -17 -13 -17 6 -3 11 8 22 16 24 17 2 2 0 3 -6 3 -6
0 -17 -8 -24 -17z"/>
<path d="M3762 3585 c30 -112 63 -215 69 -215 9 0 -3 48 -38 150 -23 70 -43
111 -31 65z"/>
<path d="M3125 3580 c-3 -5 1 -10 9 -10 9 0 16 5 16 10 0 6 -4 10 -9 10 -6 0
-13 -4 -16 -10z"/>
<path d="M2700 3572 c0 -5 19 -22 43 -38 23 -15 61 -43 85 -62 57 -45 63 -36
9 15 -45 43 -137 100 -137 85z"/>
<path d="M8199 3563 c-13 -16 -12 -17 4 -4 9 7 17 15 17 17 0 8 -8 3 -21 -13z"/>
<path d="M8750 3530 c-10 -7 -1 -8 31 -4 35 5 49 2 63 -11 16 -17 18 -17 34
-1 16 16 16 17 1 11 -10 -4 -20 -2 -24 4 -8 14 -85 14 -105 1z"/>
<path d="M8698 3513 c7 -3 16 -2 19 1 4 3 -2 6 -13 5 -11 0 -14 -3 -6 -6z"/>
<path d="M3260 3492 c6 -13 14 -21 18 -18 3 4 -2 14 -12 24 -18 16 -18 16 -6
-6z"/>
<path d="M8257 3463 c-11 -12 -17 -13 -17 -5 0 7 -4 10 -10 7 -12 -7 -14 -82
-2 -88 4 -3 13 1 19 9 8 8 9 15 3 19 -19 12 -10 33 20 45 16 7 27 16 24 21 -8
13 -18 11 -37 -8z"/>
<path d="M3280 3436 c0 -14 -8 -30 -17 -35 -16 -9 -15 -10 8 -11 26 0 49 16
49 35 0 5 -5 3 -11 -5 -8 -12 -9 -10 -7 9 2 13 -3 26 -9 28 -8 3 -13 -5 -13
-21z"/>
<path d="M2909 3409 c18 -17 27 -19 44 -11 21 10 21 11 -5 11 -15 1 -30 6 -33
11 -3 6 -11 10 -17 10 -7 0 -2 -10 11 -21z"/>
<path d="M7477 3407 c-4 -10 -7 -29 -7 -42 0 -13 -4 -25 -8 -27 -15 -5 -1
-135 62 -603 8 -55 21 -161 30 -235 28 -224 66 -463 76 -475 5 -7 7 -14 4 -17
-3 -3 15 -13 40 -21 47 -16 58 -13 30 8 -12 9 -30 105 -74 416 -33 222 -66
450 -74 506 -9 57 -16 118 -17 135 0 28 -2 30 -9 13 -8 -19 -9 -19 -9 3 -1 12
-5 22 -10 22 -9 0 -10 11 -11 170 -1 108 -11 177 -23 147z"/>
<path d="M4162 3363 c-7 -27 -17 -84 -22 -128 -5 -44 -16 -118 -25 -165 -8
-47 -24 -164 -35 -260 -11 -96 -25 -197 -31 -225 -6 -27 -13 -68 -15 -90 -2
-22 -8 -69 -13 -105 -6 -36 -12 -101 -16 -145 -10 -127 -60 -492 -95 -700 -47
-271 -71 -431 -95 -640 -15 -121 -35 -276 -46 -345 -11 -69 -26 -181 -35 -250
-19 -158 -33 -256 -40 -286 -5 -21 -3 -24 24 -24 26 0 31 4 36 32 7 41 21 175
37 342 6 72 15 137 19 145 13 26 40 189 50 310 6 62 12 116 14 120 2 3 9 65
16 136 11 124 46 334 69 420 6 22 15 87 21 145 21 231 43 416 50 435 5 11 18
121 30 245 12 124 26 245 31 270 22 105 32 201 31 298 -1 57 2 101 7 98 4 -3
8 7 9 22 1 44 4 63 17 142 8 41 16 105 19 142 2 37 7 71 10 76 2 4 1 13 -3 20
-4 7 -12 -7 -19 -35z"/>
<path d="M8616 3395 c-8 -9 -19 -16 -23 -16 -15 -1 -16 -9 -1 -9 8 0 23 9 33
20 21 23 14 27 -9 5z"/>
<path d="M2558 3388 c9 -9 15 -9 24 0 9 9 7 12 -12 12 -19 0 -21 -3 -12 -12z"/>
<path d="M9107 3373 c6 -15 13 -16 31 -4 10 6 7 10 -11 13 -18 4 -24 1 -20 -9z"/>
<path d="M2958 3369 c16 -18 152 -24 207 -10 37 9 34 10 -35 8 -41 -1 -100 3
-130 7 -46 7 -53 6 -42 -5z"/>
<path d="M3238 3373 c6 -2 18 -2 25 0 6 3 1 5 -13 5 -14 0 -19 -2 -12 -5z"/>
<path d="M4256 3281 c-17 -92 -21 -149 -10 -138 4 3 8 19 10 34 1 15 8 63 15
106 16 108 5 107 -15 -2z"/>
<path d="M4696 3348 c-3 -13 -5 -41 -5 -63 1 -33 3 -29 9 20 8 63 7 81 -4 43z"/>
<path d="M7361 3343 c1 -10 4 -29 8 -43 7 -25 8 -25 15 -3 4 12 2 31 -4 43
-13 25 -20 26 -19 3z"/>
<path d="M3420 3333 c8 -3 18 -11 22 -17 4 -6 10 -7 15 -3 9 10 -16 27 -37 26
-13 -1 -13 -1 0 -6z"/>
<path d="M8184 3296 c-9 -15 -14 -29 -11 -32 3 -3 13 6 23 20 9 15 14 29 11
32 -3 3 -13 -6 -23 -20z"/>
<path d="M9183 3313 c4 -6 26 -26 50 -44 28 -23 36 -26 22 -10 -23 26 -82 71
-72 54z"/>
<path d="M7384 3233 c12 -60 27 -196 41 -373 27 -335 69 -689 96 -796 8 -30
17 -44 32 -48 36 -9 38 -7 22 17 -19 30 -47 188 -80 452 -14 116 -37 289 -50
385 -13 96 -30 223 -37 283 -7 59 -16 107 -21 107 -5 0 -6 -12 -3 -27z"/>
<path d="M3428 3204 c-29 -15 -35 -28 -18 -39 6 -3 13 1 16 9 3 8 14 18 25 21
10 4 19 11 19 16 0 12 -10 11 -42 -7z"/>
<path d="M8152 3195 c0 -16 2 -22 5 -12 2 9 2 23 0 30 -3 6 -5 -1 -5 -18z"/>
<path d="M7582 3190 c0 -14 2 -19 5 -12 2 6 2 18 0 25 -3 6 -5 1 -5 -13z"/>
<path d="M6976 3080 c3 -69 9 -181 14 -250 6 -69 15 -208 20 -310 9 -156 20
-284 34 -374 1 -11 7 -21 12 -23 6 -2 6 37 2 99 -4 57 -14 211 -23 343 -14
218 -33 421 -55 580 -6 44 -7 26 -4 -65z"/>
<path d="M7342 3145 c0 -16 2 -22 5 -12 2 9 2 23 0 30 -3 6 -5 -1 -5 -18z"/>
<path d="M4676 3128 c-8 -48 -35 -320 -41 -413 -6 -112 -23 -304 -29 -340 -20
-112 -36 -234 -41 -320 -6 -105 -23 -244 -55 -460 -11 -71 -29 -200 -40 -285
-12 -85 -27 -193 -35 -240 -8 -47 -30 -200 -49 -340 -19 -140 -42 -302 -50
-360 -8 -58 -20 -148 -26 -200 -6 -52 -13 -112 -16 -133 l-6 -37 144 1 144 1
10 34 c8 24 8 35 0 38 -6 2 26 5 72 5 47 1 82 5 82 11 0 6 -29 10 -68 10 -59
0 -72 3 -90 23 -29 30 -28 43 3 51 18 5 25 13 25 31 0 13 -4 27 -10 30 -5 3
-10 13 -10 21 0 8 5 12 10 9 6 -4 10 6 10 23 0 17 6 32 13 35 16 6 22 -130 6
-149 -7 -8 -10 -16 -8 -17 2 -1 14 -10 26 -21 l22 -18 -6 55 c-7 70 2 108 23
100 14 -5 14 -3 3 15 -7 12 -10 24 -6 28 8 8 278 -43 290 -55 4 -5 7 -35 5
-67 -3 -52 -6 -59 -25 -62 -18 -3 -23 3 -29 34 l-7 37 -13 -25 c-7 -14 -20
-28 -29 -32 -9 -3 -15 -18 -15 -36 0 -33 -8 -44 -52 -73 -16 -10 -28 -22 -28
-28 0 -6 7 -3 16 5 8 9 20 16 26 16 14 0 68 59 68 75 0 8 4 16 9 20 16 9 18
-29 3 -52 -22 -36 1 -27 32 12 16 19 32 33 36 30 4 -3 11 -30 15 -60 6 -53 8
-55 36 -55 16 0 29 1 29 3 0 1 -9 27 -20 57 -27 75 -28 175 -1 190 27 14 94
13 109 -2 16 -16 15 -33 -4 -76 -44 -103 -44 -101 -31 -96 7 2 26 41 42 84 16
44 32 80 36 80 16 0 30 -31 24 -50 -10 -32 -85 -157 -85 -142 0 6 -4 12 -10
12 -12 0 -13 -30 -1 -48 15 -25 45 7 81 86 43 94 209 371 258 432 69 85 200
212 211 206 25 -16 7 -57 -71 -168 -200 -284 -346 -528 -335 -561 2 -7 14 10
25 37 12 27 52 95 88 152 57 89 68 102 80 89 17 -16 19 -39 3 -29 -7 4 -9 0
-5 -14 5 -15 -10 -55 -48 -132 l-56 -111 34 3 c28 2 35 7 39 27 9 46 13 55 37
101 14 25 28 53 32 63 4 9 12 17 18 17 5 0 10 11 10 24 0 14 5 28 10 31 6 3
10 15 10 26 0 12 7 19 18 18 9 0 12 -3 6 -5 -7 -3 -9 -14 -7 -25 5 -16 8 -18
14 -7 20 32 6 -18 -36 -128 -25 -64 -45 -122 -45 -130 0 -10 15 -13 55 -13
l54 1 -1 87 c0 47 4 97 10 111 l11 25 0 -30 c1 -51 33 -195 43 -195 6 0 8 10
5 23 -4 12 -9 59 -13 103 l-7 82 84 -3 c46 -2 97 -6 112 -10 20 -5 33 -3 46 9
17 16 20 16 35 1 9 -9 16 -20 16 -25 0 -4 16 -47 36 -94 26 -63 41 -86 54 -86
17 0 15 9 -16 98 -19 55 -36 123 -38 157 l-4 60 65 -135 c35 -74 66 -145 69
-157 4 -16 14 -23 31 -23 20 0 24 4 18 18 -32 78 -66 185 -64 199 2 10 -7 34
-19 53 -23 37 -27 50 -14 50 18 0 90 -111 167 -257 17 -31 36 -59 44 -61 18
-6 -87 197 -156 299 -31 46 -74 116 -96 154 -22 39 -61 102 -87 140 -53 78
-64 103 -51 124 22 35 179 -150 280 -330 30 -51 80 -139 111 -194 32 -55 68
-121 80 -147 l22 -48 58 0 c65 0 90 18 91 66 0 26 1 27 10 9 6 -14 8 1 5 47
-2 59 -1 66 12 56 11 -10 13 -28 9 -78 -2 -36 -8 -73 -12 -82 -6 -15 -2 -18
19 -18 25 0 26 3 27 58 1 31 4 48 6 37 8 -32 22 -44 60 -51 19 -4 40 -15 46
-25 11 -18 28 -19 250 -19 l238 0 -6 48 c-3 26 -14 148 -26 271 -11 124 -22
228 -24 231 -2 3 -11 112 -20 241 -8 128 -20 266 -25 304 -5 39 -12 102 -15
140 -4 39 -11 89 -16 113 -5 23 -16 91 -23 150 -16 120 -92 396 -135 487 -15
33 -49 83 -74 111 -59 65 -62 89 -11 81 20 -3 33 -3 29 1 -4 4 -32 7 -63 8
-32 0 -79 3 -107 7 l-50 7 53 -19 c134 -50 195 -133 237 -322 14 -63 30 -152
35 -199 6 -47 12 -97 15 -113 5 -24 3 -27 -17 -22 -90 20 -133 26 -255 35
-158 11 -405 12 -510 2 -39 -4 -70 -5 -67 -1 2 4 -4 5 -15 2 -10 -2 -36 0 -57
6 -22 7 -104 20 -184 30 -177 23 -252 53 -475 188 -82 50 -177 104 -211 121
-96 48 -109 82 -38 98 l37 9 -84 39 c-46 21 -97 48 -112 59 -26 17 -27 21 -14
35 23 23 109 28 148 8 l33 -16 -22 23 c-12 13 -22 32 -22 43 0 17 6 20 45 19
29 0 41 3 35 9 -18 18 -11 46 10 46 11 0 20 5 20 10 0 14 -38 12 -43 -2 -3 -9
-11 -6 -24 9 -11 13 -23 20 -27 16 -11 -11 -36 31 -30 51 4 11 2 16 -4 12 -6
-3 -13 0 -15 6 -3 7 -6 -3 -6 -22 -1 -26 -4 -31 -11 -20 -10 16 -11 14 -14
-34 -1 -11 -7 -21 -14 -24 -9 -3 -11 3 -6 25 15 63 54 183 87 268 19 50 38
106 41 125 l7 35 -19 -35 c-23 -42 -86 -214 -137 -370 -20 -63 -54 -146 -75
-185 -21 -38 -55 -113 -76 -165 -21 -52 -43 -99 -51 -103 -7 -4 -13 -15 -13
-22 0 -8 -4 -15 -10 -15 -5 0 -10 -7 -10 -16 0 -18 -19 -65 -58 -139 -38 -74
-36 -136 6 -202 65 -101 47 -104 -45 -8 -125 132 -119 117 -97 240 16 90 20
102 30 84 7 -13 14 -17 18 -11 3 6 2 13 -4 17 -13 8 -13 55 1 55 7 0 9 13 5
38 -4 20 -2 62 4 92 19 99 23 140 14 140 -5 0 -6 52 -3 117 11 198 38 563 49
648 21 172 25 337 6 233z m1103 -1545 c53 -8 132 -21 176 -30 96 -19 107 -19
305 -10 156 7 348 0 370 -13 16 -10 30 -231 15 -236 -26 -8 -305 -34 -435 -40
-370 -16 -786 -11 -807 9 -3 4 12 44 35 90 36 72 97 208 123 274 l8 22 57 -26
c33 -15 98 -32 153 -40z m-1199 -203 c13 -9 13 -10 0 -10 -8 0 -22 5 -30 10
-13 9 -13 10 0 10 8 0 22 -5 30 -10z m478 -157 c-10 -2 -28 -2 -40 0 -13 2 -5
4 17 4 22 1 32 -1 23 -4z m70 -10 c-10 -2 -26 -2 -35 0 -10 3 -2 5 17 5 19 0
27 -2 18 -5z m156 -3 c55 -5 270 -10 478 -11 208 0 378 -4 378 -9 0 -11 -512
-24 -640 -16 -182 11 -349 30 -344 38 6 10 5 10 128 -2z m516 -170 c0 -5 -2
-10 -4 -10 -3 0 -8 5 -11 10 -3 6 -1 10 4 10 6 0 11 -4 11 -10z m-110 -22 c0
-5 -9 -6 -20 -3 -11 3 -20 2 -20 -2 0 -5 -13 -24 -28 -42 -26 -32 -28 -32 -42
-15 -8 10 -10 15 -4 11 6 -3 17 5 25 19 22 41 89 66 89 32z m70 -4 c0 -8 -4
-12 -10 -9 -5 3 -10 13 -10 21 0 8 5 12 10 9 6 -3 10 -13 10 -21z m101 13 c-1
-12 -15 -9 -19 4 -3 6 1 10 8 8 6 -3 11 -8 11 -12z m-251 -1 c0 -2 -8 -10 -17
-17 -16 -13 -17 -12 -4 4 13 16 21 21 21 13z m342 -8 c14 -12 13 -15 -3 -30
-16 -15 -19 -15 -35 3 -16 17 -16 22 -4 29 20 13 23 12 42 -2z m-112 -24 c0
-8 -4 -12 -10 -9 -5 3 -10 13 -10 21 0 8 5 12 10 9 6 -3 10 -13 10 -21z m146
-42 c-11 -10 -15 4 -8 28 l7 25 3 -23 c2 -13 1 -26 -2 -30z m-183 14 c3 -8 3
-17 0 -20 -9 -9 -34 15 -27 25 8 13 21 11 27 -5z m-172 -38 c-8 -24 -41 -38
-41 -19 0 6 5 11 10 11 6 0 10 7 10 15 0 8 7 15 15 15 11 0 12 -6 6 -22z m324
-8 c0 -7 -6 -15 -12 -17 -8 -3 -13 4 -13 17 0 13 5 20 13 18 6 -3 12 -11 12
-18z m-51 1 c3 -5 -1 -11 -9 -15 -8 -3 -15 -13 -15 -21 0 -9 -4 -14 -9 -11
-13 8 -1 56 15 56 7 0 15 -4 18 -9z m-90 -30 c20 -22 18 -75 -4 -165 l-12 -50
-14 30 -14 29 3 -32 c2 -18 1 -33 -2 -33 -7 0 -29 33 -53 80 l-18 35 5 -32 c2
-18 0 -33 -5 -33 -4 0 -8 30 -8 68 0 54 4 71 21 90 12 13 28 20 38 17 10 -3
20 -1 24 5 9 15 20 12 39 -9z m146 -12 c0 -4 -14 -7 -31 -7 -16 1 -26 4 -20 7
14 9 51 8 51 0z m-915 -39 c-10 -11 -21 -17 -24 -14 -3 3 3 12 13 20 28 20 32
17 11 -6z m-205 -5 c63 -8 117 -18 122 -23 4 -4 3 -13 -1 -21 -7 -11 -30 -10
-140 9 -72 13 -136 29 -142 36 -15 19 15 18 161 -1z m304 7 c3 -5 -13 -21 -34
-35 -46 -30 -57 -12 -14 22 29 23 40 26 48 13z m394 -53 c3 -6 10 -5 18 2 20
16 74 19 74 4 0 -18 -37 -48 -52 -42 -7 2 -17 5 -22 5 -5 0 -12 6 -17 13 -6
10 -11 10 -25 -2 -13 -10 -57 -15 -182 -17 -175 -4 -236 2 -229 21 11 33 49
38 242 32 111 -3 191 -10 193 -16z m-709 -10 c132 -22 151 -30 151 -60 0 -9 8
-25 17 -35 16 -16 16 -16 -2 -11 -11 3 -63 11 -115 17 -134 17 -214 43 -228
75 -7 14 -12 28 -12 30 0 10 67 4 189 -16z m1649 5 c12 -2 22 -8 22 -13 0 -29
-428 -27 -457 3 -20 20 37 25 217 20 107 -3 205 -7 218 -10z m102 -45 c0 -6
-4 -7 -10 -4 -5 3 -10 11 -10 16 0 6 5 7 10 4 6 -3 10 -11 10 -16z m-1487 -79
c-8 -10 -23 26 -22 55 1 28 1 28 13 -10 7 -22 11 -42 9 -45z m204 65 c199 -16
230 -26 207 -63 -10 -15 -31 -17 -182 -17 -167 0 -171 1 -196 24 -21 20 -37
71 -22 71 3 0 89 -7 193 -15z m1177 -33 c-4 -20 -9 -40 -11 -44 -6 -11 -37
-10 -49 2 -7 7 -22 6 -47 -5 -26 -11 -72 -15 -159 -15 -129 0 -153 6 -142 33
5 14 0 17 -27 18 -28 0 -31 2 -14 9 11 5 43 12 70 16 32 4 44 9 32 13 -9 3 66
7 168 8 l186 2 -7 -37z m23 -78 c-3 -3 -12 -4 -19 -1 -8 3 -5 6 6 6 11 1 17
-2 13 -5z m-2000 -401 c-3 -10 -5 -2 -5 17 0 19 2 27 5 18 2 -10 2 -26 0 -35z
m1208 17 c4 -6 -6 -10 -22 -9 -25 0 -26 1 -8 9 11 5 21 9 22 9 1 1 5 -3 8 -9z
m999 -17 c3 -16 8 -62 11 -103 5 -71 5 -73 -9 -43 -29 64 -103 121 -178 137
-16 4 -28 11 -28 16 0 9 47 15 147 18 49 2 52 1 57 -25z m-224 -22 c0 -6 -4
-12 -8 -15 -5 -3 -9 1 -9 9 0 8 4 15 9 15 4 0 8 -4 8 -9z m120 -46 c13 -14 19
-25 14 -25 -8 1 -50 50 -41 50 2 0 14 -11 27 -25z m-260 -5 c0 -5 -2 -10 -4
-10 -3 0 -8 5 -11 10 -3 6 -1 10 4 10 6 0 11 -4 11 -10z m132 -9 c21 -17 24
-25 19 -62 -6 -44 -34 -66 -61 -49 -10 6 -6 14 16 33 l29 26 -40 -5 c-32 -4
-46 0 -70 20 l-30 25 26 1 c15 0 32 7 39 15 17 20 42 19 72 -4z m316 -68 c-5
-52 -28 -56 -28 -4 0 31 4 41 16 41 12 0 15 -9 12 -37z m-2281 -35 c-3 -7 -5
-2 -5 12 0 14 2 19 5 13 2 -7 2 -19 0 -25z"/>
<path d="M7585 3100 c20 -169 24 -186 18 -75 -3 61 -10 115 -15 120 -6 7 -7
-9 -3 -45z"/>
<path d="M4226 3022 c-8 -86 -32 -256 -46 -317 -17 -78 -49 -332 -55 -438 -3
-60 -12 -154 -20 -210 -8 -56 -12 -103 -10 -106 3 -2 -2 -9 -9 -15 -10 -7 -22
-68 -36 -181 -12 -93 -26 -178 -31 -187 -5 -9 -9 -25 -9 -36 0 -11 -7 -33 -15
-48 -8 -16 -15 -40 -15 -54 0 -14 -7 -56 -15 -95 -13 -57 -41 -311 -43 -390
-2 -42 -22 -221 -27 -244 -12 -50 -53 -318 -60 -391 -6 -79 -33 -262 -41 -292
-4 -15 1 -18 28 -18 l34 0 18 143 c10 78 24 198 32 267 29 261 34 299 53 430
11 74 23 180 26 235 4 55 16 150 27 210 11 61 24 133 28 160 5 28 15 86 23
130 9 44 18 127 22 183 5 64 11 99 16 90 7 -10 9 -8 9 6 0 11 9 101 20 200 11
100 24 249 29 331 5 83 16 180 24 216 23 101 46 263 55 382 9 124 -2 157 -12
39z m-129 -1114 c-3 -8 -6 -5 -6 6 -1 11 2 17 5 13 3 -3 4 -12 1 -19z"/>
<path d="M7641 3074 c0 -11 3 -14 6 -6 3 7 2 16 -1 19 -3 4 -6 -2 -5 -13z"/>
<path d="M9436 2954 c52 -47 98 -83 102 -79 4 3 -11 22 -33 41 -57 50 -153
124 -159 124 -3 0 37 -39 90 -86z"/>
<path d="M3992 3010 c0 -14 2 -19 5 -12 2 6 2 18 0 25 -3 6 -5 1 -5 -13z"/>
<path d="M7356 2950 c3 -47 12 -116 20 -155 7 -38 25 -189 39 -335 14 -146 33
-290 41 -320 8 -30 18 -67 21 -82 3 -16 10 -28 15 -28 5 0 7 12 4 28 -18 90
-84 607 -92 729 -5 63 -10 90 -16 81 -7 -9 -8 -2 -4 19 3 18 1 35 -4 38 -6 3
-10 23 -10 43 0 20 -5 44 -11 52 -7 10 -8 -11 -3 -70z"/>
<path d="M9495 3015 c31 -22 39 -29 62 -48 16 -14 23 -15 29 -6 4 8 3 10 -4 5
-7 -4 -12 -1 -12 7 0 7 -17 23 -39 35 -43 25 -67 29 -36 7z"/>
<path d="M7651 3004 c0 -11 3 -14 6 -6 3 7 2 16 -1 19 -3 4 -6 -2 -5 -13z"/>
<path d="M9657 3009 c7 -7 15 -10 18 -7 3 3 -2 9 -12 12 -14 6 -15 5 -6 -5z"/>
<path d="M9690 2995 c0 -7 61 -37 66 -33 2 3 -12 12 -31 21 -19 9 -35 15 -35
12z"/>
<path d="M3989 2953 c0 -10 -4 -42 -8 -70 -6 -41 -4 -53 6 -53 9 0 13 19 13
70 0 39 -2 70 -5 70 -3 0 -5 -8 -6 -17z"/>
<path d="M7612 2860 c0 -14 2 -19 5 -12 2 6 2 18 0 25 -3 6 -5 1 -5 -13z"/>
<path d="M3967 2802 c-9 -17 -29 -160 -24 -178 3 -12 5 -8 6 13 0 18 7 36 14
40 21 12 30 45 15 55 -10 6 -10 10 2 18 13 9 13 11 0 20 -13 8 -12 10 3 10 9
0 17 4 17 9 0 11 -28 22 -33 13z"/>
<path d="M4246 2743 c-4 -15 -8 -55 -11 -87 -2 -33 -7 -72 -10 -87 -4 -16 -2
-36 3 -45 6 -11 13 22 22 110 11 120 9 172 -4 109z"/>
<path d="M3959 2568 c-1 -86 -2 -89 -9 -40 -4 29 -10 55 -13 58 -2 2 -7 -33
-11 -78 -4 -46 -15 -141 -26 -213 -20 -134 -45 -338 -54 -435 -5 -54 4 -44 18
23 4 15 11 25 16 22 13 -8 17 17 30 170 15 175 18 200 36 272 8 35 14 69 13
75 -2 7 1 31 5 53 11 62 14 185 5 185 -5 0 -10 -42 -10 -92z m-22 -125 c-3
-10 -5 -4 -5 12 0 17 2 24 5 18 2 -7 2 -21 0 -30z"/>
<path d="M5457 2512 c-9 -10 -37 -62 -62 -115 -25 -53 -50 -97 -57 -97 -6 0
-8 -3 -5 -7 4 -3 2 -12 -4 -20 -6 -7 -9 -13 -6 -13 4 0 0 -19 -8 -41 -18 -50
-18 -50 -2 -43 8 3 25 31 40 62 40 90 125 292 123 292 -2 0 -10 -8 -19 -18z"/>
<path d="M6174 2469 c-6 -13 -26 -71 -43 -129 -18 -58 -38 -124 -45 -147 -7
-24 -9 -43 -4 -43 5 0 10 6 12 13 2 6 25 79 51 160 25 81 45 153 43 159 -2 5
-9 0 -14 -13z"/>
<path d="M4201 2363 c-20 -125 -31 -255 -22 -271 10 -17 15 8 30 138 17 150
21 210 12 210 -4 0 -14 -35 -20 -77z"/>
<path d="M2840 2214 c-60 -26 -115 -32 -150 -18 -50 21 -67 17 -36 -7 23 -18
37 -21 85 -16 50 4 141 38 141 52 0 6 1 7 -40 -11z"/>
<path d="M5562 2212 c5 -18 -13 -42 -32 -42 -5 0 -10 7 -10 15 0 24 -24 17
-37 -10 -10 -23 -9 -25 13 -25 13 0 24 -5 24 -12 0 -6 3 -8 6 -5 8 7 44 -36
44 -52 0 -7 7 -14 15 -17 8 -4 15 -12 15 -20 0 -8 2 -14 4 -14 2 0 13 -3 23
-6 15 -5 15 -4 3 5 -10 7 -11 11 -2 11 6 0 12 7 12 15 0 8 5 15 12 15 6 0 8 3
5 6 -4 4 2 19 13 34 11 16 20 32 20 38 0 16 -81 32 -103 21 -23 -13 -38 -1
-15 12 17 9 14 49 -4 49 -6 0 -8 -8 -6 -18z"/>
<path d="M8208 2172 c-27 -15 -48 -30 -48 -34 0 -6 85 40 109 59 18 14 -23 -3
-61 -25z"/>
<path d="M5719 2163 c-1 -5 -1 -12 0 -17 1 -4 -2 -13 -7 -20 -5 -6 -12 -23
-16 -38 -5 -21 -3 -28 9 -28 8 0 15 -4 15 -10 0 -5 5 -10 10 -10 6 0 10 9 10
20 0 16 7 20 31 20 34 0 31 16 -7 30 -17 7 -24 17 -24 35 0 22 -18 37 -21 18z"/>
<path d="M5787 2119 c7 -7 15 -10 18 -7 3 3 -2 9 -12 12 -14 6 -15 5 -6 -5z"/>
<path d="M8320 2089 c-97 -12 -116 -20 -25 -12 39 3 106 9 150 13 l80 7 -65 0
c-36 0 -99 -3 -140 -8z"/>
<path d="M2768 2056 c12 -16 22 -43 22 -62 0 -52 -21 -57 -179 -49 -118 6
-148 4 -231 -15 -107 -23 -232 -69 -224 -81 11 -19 81 -19 265 0 143 14 207
17 239 10 23 -5 48 -8 54 -5 6 2 3 5 -6 5 -23 1 -36 50 -17 62 8 4 24 6 36 2
14 -3 34 2 48 11 37 24 36 93 -2 127 l-27 24 22 -29z"/>
<path d="M5672 2060 c0 -14 2 -19 5 -12 2 6 2 18 0 25 -3 6 -5 1 -5 -13z"/>
<path d="M8188 2063 c6 -2 18 -2 25 0 6 3 1 5 -13 5 -14 0 -19 -2 -12 -5z"/>
<path d="M8138 2053 c6 -2 18 -2 25 0 6 3 1 5 -13 5 -14 0 -19 -2 -12 -5z"/>
<path d="M4168 1956 c-5 -27 -8 -67 -8 -90 1 -33 3 -37 11 -24 5 10 9 50 7 90
l-3 73 -7 -49z"/>
<path d="M5944 1975 c11 -16 27 -35 35 -42 27 -20 102 -33 217 -37 82 -3 117
-8 136 -20 16 -11 54 -19 100 -21 l73 -5 -95 26 c-62 16 -141 28 -226 33 -137
9 -163 17 -225 68 l-34 28 19 -30z"/>
<path d="M6973 1935 c11 -35 23 -63 25 -61 5 6 -28 115 -38 121 -4 3 1 -24 13
-60z"/>
<path d="M7001 1844 c0 -11 3 -14 6 -6 3 7 2 16 -1 19 -3 4 -6 -2 -5 -13z"/>
<path d="M7011 1804 c0 -11 3 -14 6 -6 3 7 2 16 -1 19 -3 4 -6 -2 -5 -13z"/>
<path d="M1820 1773 c-23 -45 -23 -49 -1 -23 11 14 21 31 21 38 0 19 -5 15
-20 -15z"/>
<path d="M3836 1778 c-2 -7 -13 -97 -26 -201 -12 -103 -28 -213 -35 -245 -20
-84 -63 -408 -75 -557 -13 -168 -25 -269 -45 -375 -9 -47 -18 -146 -22 -220
-4 -119 -3 -133 9 -115 15 20 43 202 54 350 3 44 12 105 19 135 7 30 23 143
34 250 39 355 52 464 71 565 36 194 41 246 29 353 -3 28 -1 52 3 52 4 0 8 5 8
10 0 14 -20 12 -24 -2z"/>
<path d="M4136 1771 c-4 -6 -4 -34 -1 -63 4 -37 2 -47 -4 -33 -7 15 -10 2 -11
-50 -2 -54 -4 -64 -11 -45 -7 19 -8 14 -5 -23 2 -26 -1 -50 -6 -53 -5 -3 -8
-13 -7 -22 4 -45 -2 -93 -11 -87 -5 3 -10 1 -10 -4 0 -6 5 -11 10 -11 13 0 13
-111 -1 -130 -8 -11 -9 -8 -4 15 4 16 3 26 -1 22 -8 -8 -13 -44 -34 -242 -6
-60 -15 -114 -20 -120 -4 -5 -13 -66 -19 -135 -6 -69 -18 -174 -26 -235 -28
-213 -54 -421 -61 -487 l-6 -68 31 0 c28 0 31 3 31 33 0 56 10 168 25 282 24
182 44 347 70 590 15 127 34 293 45 370 10 77 21 178 25 225 3 47 11 125 16
174 7 58 8 91 1 98 -6 6 -12 6 -16 -1z m-129 -1203 c-3 -8 -6 -5 -6 6 -1 11 2
17 5 13 3 -3 4 -12 1 -19z"/>
<path d="M2885 1746 c9 -43 -3 -83 -28 -90 -12 -4 -89 -11 -172 -16 -82 -5
-220 -21 -305 -35 -165 -28 -186 -32 -178 -41 6 -5 357 24 368 31 4 2 61 9
129 15 67 5 132 15 143 21 44 23 77 -56 47 -113 -25 -47 -204 -107 -479 -159
-58 -11 -114 -24 -125 -29 -18 -8 -18 -9 5 -9 131 -4 390 46 502 96 53 24 58
24 74 9 38 -38 10 -99 -64 -142 -26 -15 -57 -35 -70 -45 -13 -10 -66 -35 -119
-55 -52 -20 -107 -47 -122 -60 -38 -32 -74 -44 -130 -44 -106 0 -170 43 -217
145 -18 39 -52 94 -74 121 l-42 49 6 70 c7 77 0 93 -61 154 -20 19 -33 43 -34
59 -1 19 -3 22 -6 8 -3 -10 0 -38 7 -61 12 -42 5 -103 -30 -260 -5 -22 -14
-87 -20 -145 -6 -58 -20 -141 -30 -185 -11 -44 -26 -147 -35 -230 -8 -82 -22
-208 -30 -280 -37 -310 -45 -525 -22 -525 10 0 16 52 25 221 11 218 39 449 54
449 14 0 12 -63 -8 -330 -7 -107 -14 -228 -14 -267 l0 -73 365 0 c201 0 365 1
365 3 0 37 42 433 47 440 4 6 10 27 15 47 4 22 5 8 2 -37 -4 -50 -2 -73 6 -73
15 0 2 -177 -26 -348 -4 -29 -2 -32 19 -32 23 0 24 4 31 83 8 93 25 464 26
577 l1 75 20 -55 c16 -46 142 -543 164 -648 l7 -32 134 0 134 0 -6 33 c-3 17
-41 176 -84 352 -162 658 -210 857 -210 870 0 8 14 36 30 62 36 56 37 81 9
117 l-21 27 21 23 c11 12 26 36 32 54 9 27 8 38 -11 73 -15 30 -18 45 -11 52
14 14 14 78 0 97 -8 11 -9 8 -4 -14z m-744 -608 c11 -21 11 -22 -4 -9 -10 7
-17 17 -17 22 0 15 9 10 21 -13z m-244 -180 c-3 -7 -5 -2 -5 12 0 14 2 19 5
13 2 -7 2 -19 0 -25z m710 -330 c-2 -13 -4 -5 -4 17 -1 22 1 32 4 23 2 -10 2
-28 0 -40z m-10 -50 c-3 -8 -6 -5 -6 6 -1 11 2 17 5 13 3 -3 4 -12 1 -19z"/>
<path d="M7021 1754 c0 -11 3 -14 6 -6 3 7 2 16 -1 19 -3 4 -6 -2 -5 -13z"/>
<path d="M7560 1755 c0 -5 5 -17 10 -25 5 -8 10 -10 10 -5 0 6 -5 17 -10 25
-5 8 -10 11 -10 5z"/>
<path d="M1761 1673 c-7 -18 -17 -33 -22 -33 -5 0 -9 -7 -9 -15 0 -8 4 -15 10
-15 14 0 42 58 38 78 -2 12 -8 7 -17 -15z"/>
<path d="M6140 1580 l-25 -8 25 0 c14 0 34 3 45 8 l20 9 -20 -1 c-11 0 -31 -4
-45 -8z"/>
<path d="M7121 1460 c2 -30 1 -60 -3 -66 -4 -6 -3 -38 2 -70 6 -32 10 -80 10
-106 0 -27 4 -48 8 -48 4 0 9 -32 11 -72 1 -40 5 -76 7 -80 2 -3 6 -46 8 -95
6 -126 16 -232 26 -278 5 -22 14 -128 20 -235 6 -107 15 -222 20 -255 5 -33
12 -81 15 -107 4 -33 11 -48 21 -48 10 0 13 7 10 23 -3 12 -10 76 -16 142 -6
66 -17 178 -25 250 -34 306 -45 422 -60 620 -18 240 -42 466 -51 474 -3 3 -5
-19 -3 -49z"/>
<path d="M7735 1430 c2 -41 10 -95 19 -120 21 -61 20 -79 -6 -90 -13 -5 -18
-9 -13 -10 59 -8 63 -14 37 -49 -18 -24 -19 -30 -6 -35 9 -3 13 -14 10 -30 -3
-18 -1 -23 10 -19 8 3 14 0 14 -6 0 -6 -8 -11 -18 -11 -35 0 -87 -75 -75 -107
16 -41 77 -137 81 -125 2 6 -10 36 -27 66 -17 29 -31 63 -31 74 0 27 37 62 66
62 38 0 54 -77 30 -145 -6 -17 -4 -16 14 5 29 33 24 109 -10 145 -12 13 -19
28 -15 34 3 6 1 11 -4 11 -6 0 -11 12 -11 26 0 26 1 26 50 22 151 -15 233
-130 247 -349 5 -78 3 -92 -20 -142 -38 -83 -167 -174 -167 -118 0 11 -5 21
-12 23 -16 6 16 49 82 112 28 27 57 64 65 84 30 71 13 148 -41 191 -47 37 -81
27 -116 -34 -11 -19 -10 -19 15 -2 32 21 43 21 51 1 3 -8 2 -12 -4 -9 -6 3
-10 -5 -10 -19 0 -28 9 -33 28 -14 9 9 12 6 12 -15 0 -17 -13 -39 -35 -62 -34
-33 -35 -35 -12 -35 29 0 67 39 67 68 0 11 4 24 10 27 5 3 -2 17 -16 30 -16
15 -24 31 -20 40 17 46 66 -20 66 -90 0 -62 -31 -104 -77 -106 -24 -2 -24 -2
-5 -6 44 -9 19 -37 -42 -46 -48 -8 -52 -11 -38 -42 10 -21 8 -27 -14 -44 -28
-22 -63 -36 -71 -28 -2 3 2 20 10 39 24 52 25 72 12 129 l-13 54 -1 -48 c-1
-64 -41 -117 -88 -117 -44 0 -49 15 -16 47 96 95 105 135 43 194 -46 43 -75
54 -123 45 -25 -5 -37 -15 -50 -41 -21 -44 -21 -75 -2 -157 8 -35 17 -79 20
-98 8 -43 27 -65 85 -96 26 -14 34 -22 20 -19 -75 19 -136 95 -166 207 -19 72
-19 280 0 316 13 25 106 120 149 152 15 11 20 10 32 -6 12 -17 11 -20 -8 -32
-22 -12 -22 -12 3 -10 32 4 31 27 -3 158 -14 52 -28 121 -32 153 -3 31 -10 57
-14 57 -11 0 6 -159 19 -175 7 -8 10 -20 7 -27 -4 -8 -8 -5 -12 10 -4 12 -14
22 -21 22 -12 0 -11 -5 2 -26 13 -19 14 -28 5 -37 -15 -15 -14 -27 4 -27 8 0
15 -7 15 -16 0 -8 4 -12 10 -9 5 3 7 0 5 -8 -3 -7 -20 -22 -38 -32 -85 -50
-158 -150 -196 -267 -7 -20 -19 -42 -28 -50 -15 -12 -16 -8 -9 40 4 29 16 83
28 120 18 58 29 76 91 137 73 72 73 72 0 15 -181 -141 -190 -501 -18 -674 54
-54 150 -103 217 -112 55 -8 67 -22 49 -61 -9 -20 -8 -40 3 -92 9 -36 18 -96
21 -134 6 -56 10 -67 25 -67 17 0 18 7 13 93 -5 91 5 147 27 147 5 0 10 -10
10 -22 0 -13 7 -67 17 -120 14 -82 19 -98 35 -98 14 0 17 5 13 23 -9 44 -36
320 -31 332 2 6 30 25 63 40 70 35 151 113 182 178 98 202 51 450 -109 576
-52 41 -143 81 -185 81 -13 0 -34 4 -48 9 -24 9 -30 25 -70 201 l-15 65 3 -75z
m-238 -587 c-2 -16 -4 -5 -4 22 0 28 2 40 4 28 2 -13 2 -35 0 -50z m153 24 c0
-2 -10 -12 -22 -23 l-23 -19 19 23 c18 21 26 27 26 19z m87 -39 c16 -15 23
-33 23 -58 0 -32 -7 -43 -42 -73 -23 -20 -45 -34 -50 -31 -15 9 -8 30 18 54
21 21 27 22 35 10 9 -12 10 -12 5 3 -3 9 -1 17 4 17 6 0 10 9 10 20 0 24 -6
24 -45 1 -16 -10 -30 -25 -30 -34 0 -8 -4 -19 -8 -23 -4 -4 -7 0 -7 10 0 10
-5 14 -11 11 -15 -10 -39 27 -33 50 8 28 55 65 83 65 14 0 35 -10 48 -22z
m-270 -50 c-2 -13 -4 -5 -4 17 -1 22 1 32 4 23 2 -10 2 -28 0 -40z m122 24
c-10 -16 -7 -28 19 -74 18 -31 32 -69 32 -85 0 -37 30 -69 88 -94 42 -18 71
-43 72 -61 0 -17 -50 -6 -109 23 -73 37 -81 50 -106 186 -13 71 -14 96 -5 113
6 12 14 20 17 17 2 -3 -1 -14 -8 -25z m106 -61 c-3 -6 -11 -11 -17 -11 -6 0
-6 6 2 15 14 17 26 13 15 -4z m-25 -302 c11 -7 4 -8 -25 -3 -50 8 -58 14 -19
14 16 0 36 -5 44 -11z m90 -19 c0 -6 -27 -9 -62 -9 -58 2 -60 2 -23 9 61 11
85 11 85 0z m108 -86 c-9 -10 -21 -13 -29 -8 -9 5 -8 9 7 15 31 12 39 10 22
-7z"/>
<path d="M290 1400 c0 -6 7 -10 15 -10 8 0 15 2 15 4 0 2 -7 6 -15 10 -8 3
-15 1 -15 -4z"/>
<path d="M7596 1011 c-10 -11 -16 -24 -15 -29 2 -5 14 4 27 20 26 31 15 39
-12 9z"/>
<path d="M8005 991 c21 -22 41 -41 43 -41 10 0 -43 62 -61 71 -14 7 -8 -4 18
-30z"/>
<path d="M7552 955 c-17 -37 -14 -45 4 -12 9 16 14 31 11 33 -2 2 -9 -7 -15
-21z"/>
<path d="M7750 943 c0 -4 5 -15 10 -23 8 -13 10 -13 10 2 0 9 -4 20 -10 23 -5
3 -10 3 -10 -2z"/>
<path d="M1266 883 c-6 -14 -5 -15 5 -6 7 7 10 15 7 18 -3 3 -9 -2 -12 -12z"/>
<path d="M7841 834 l-31 -35 22 -30 c55 -71 67 -84 74 -77 4 4 -10 26 -30 48
-42 47 -43 52 -15 96 27 44 19 43 -20 -2z"/>
<path d="M7905 799 c-4 -6 -5 -12 -2 -15 2 -3 7 2 10 11 7 17 1 20 -8 4z"/>
<path d="M1131 697 c-30 -49 -26 -59 5 -14 14 21 24 41 21 43 -3 3 -14 -10
-26 -29z"/>
<path d="M5960 620 c0 -5 5 -10 11 -10 5 0 7 5 4 10 -3 6 -8 10 -11 10 -2 0
-4 -4 -4 -10z"/>
<path d="M3197 494 c-12 -12 -8 -26 6 -21 6 2 20 -3 30 -11 17 -15 17 -14 9 9
-9 24 -32 36 -45 23z"/>
<path d="M3251 404 c0 -11 3 -14 6 -6 3 7 2 16 -1 19 -3 4 -6 -2 -5 -13z"/>
<path d="M3166 325 c12 -48 9 -58 -23 -74 -44 -22 -41 -38 6 -43 22 -2 37 0
35 4 -3 5 -12 8 -20 8 -22 0 -16 27 7 33 17 5 20 11 15 29 -3 13 -6 33 -6 46
0 12 -5 22 -10 22 -6 0 -8 -11 -4 -25z"/>
<path d="M3200 252 c0 -5 7 -9 15 -9 8 0 12 4 9 9 -3 4 -9 8 -15 8 -5 0 -9 -4
-9 -8z"/>
<path d="M4892 238 c-18 -18 -15 -25 13 -25 18 0 25 5 25 18 0 21 -20 25 -38
7z"/>
<path d="M5051 171 c-7 -5 -11 -15 -9 -22 3 -10 8 -7 17 9 13 24 12 26 -8 13z"/>
<path d="M8775 170 c3 -5 10 -10 16 -10 5 0 9 5 9 10 0 6 -7 10 -16 10 -8 0
-12 -4 -9 -10z"/>
<path d="M3189 107 c-19 -12 -35 -33 -37 -45 -4 -25 1 -27 30 -11 16 8 19 8
13 -1 -6 -9 -2 -9 15 0 12 7 25 20 27 30 7 26 43 11 106 -42 57 -48 73 -45 24
4 -32 32 -119 88 -137 88 -4 0 -22 -10 -41 -23z"/>
<path d="M4789 95 c-12 -20 -30 -40 -40 -46 -11 -5 -19 -14 -19 -20 0 -18 57
35 74 69 21 43 11 41 -15 -3z"/>
<path d="M8855 120 c3 -5 11 -10 16 -10 6 0 7 5 4 10 -3 6 -11 10 -16 10 -6 0
-7 -4 -4 -10z"/>
<path d="M3238 35 c-11 -14 -31 -25 -50 -28 -29 -3 -27 -4 10 -5 23 -1 42 3
42 8 0 14 33 13 48 -2 21 -21 23 -2 1 25 -25 33 -29 33 -51 2z"/>
<path d="M4685 15 l-30 -13 27 -1 c15 -1 30 4 33 10 11 17 2 18 -30 4z"/>
</g>
</svg>
